<svg width="17" height="17" viewBox="0 0 17 17" fill="none" xmlns="http://www.w3.org/2000/svg">
<path fill-rule="evenodd" clip-rule="evenodd" d="M8.61814 4.95817C8.94414 4.95817 9.20841 5.20854 9.20841 5.51738L9.20841 9.24545C9.20841 9.39376 9.14622 9.536 9.03553 9.64087L6.67441 11.8777C6.44389 12.0961 6.07015 12.0961 5.83963 11.8777C5.60912 11.6593 5.60912 11.3053 5.83964 11.0869L8.02786 9.01382V5.51738C8.02786 5.20854 8.29214 4.95817 8.61814 4.95817Z" fill="#0063A9"/>
<path fill-rule="evenodd" clip-rule="evenodd" d="M8.50008 2.50625C6.96358 2.50625 4.86361 2.64725 3.55234 2.74884C3.12111 2.78225 2.78249 3.12087 2.74909 3.5521C2.6475 4.86336 2.50649 6.96333 2.50649 8.49984C2.50649 10.0363 2.6475 12.1363 2.74909 13.4476C2.78249 13.8788 3.12111 14.2174 3.55234 14.2508C4.86361 14.3524 6.96358 14.4934 8.50008 14.4934C10.0366 14.4934 12.1366 14.3524 13.4478 14.2508C13.8791 14.2174 14.2177 13.8788 14.2511 13.4476C14.3527 12.1363 14.4937 10.0363 14.4937 8.49984C14.4937 6.96333 14.3527 4.86336 14.2511 3.5521C14.2177 3.12087 13.8791 2.78225 13.4478 2.74884C12.1366 2.64725 10.0366 2.50625 8.50008 2.50625ZM3.46817 1.66235C4.78005 1.56072 6.91729 1.4165 8.50008 1.4165C10.0829 1.4165 12.2201 1.56072 13.532 1.66235C14.4987 1.73724 15.2627 2.50125 15.3376 3.46792C15.4392 4.7798 15.5834 6.91704 15.5834 8.49984C15.5834 10.0826 15.4392 12.2199 15.3376 13.5318C15.2627 14.4984 14.4987 15.2624 13.532 15.3373C12.2201 15.439 10.0829 15.5832 8.50008 15.5832C6.91729 15.5832 4.78005 15.439 3.46817 15.3373C2.5015 15.2624 1.73749 14.4984 1.6626 13.5318C1.56096 12.2199 1.41675 10.0826 1.41675 8.49984C1.41675 6.91704 1.56096 4.7798 1.6626 3.46792C1.73749 2.50125 2.5015 1.73724 3.46817 1.66235Z" fill="#0063A9"/>
</svg>
