<svg width="17" height="17" viewBox="0 0 17 17" fill="none" xmlns="http://www.w3.org/2000/svg">
<path fill-rule="evenodd" clip-rule="evenodd" d="M8.5 2.46439C5.53407 2.46439 3.03215 4.61911 3.23593 7.30254C3.26516 7.68741 3.30885 8.02243 3.36838 8.28828C3.66871 9.62951 4.61144 10.9619 5.67328 12.0929C6.72609 13.2144 7.84703 14.0868 8.42626 14.5099C8.47256 14.5437 8.52744 14.5437 8.57374 14.5099C9.15297 14.0868 10.2739 13.2144 11.3267 12.0929C12.3886 10.9619 13.3313 9.62951 13.6316 8.28828C13.6912 8.02243 13.7348 7.68741 13.7641 7.30254C13.9679 4.61911 11.4659 2.46439 8.5 2.46439ZM2.13998 7.37823C1.87998 3.95454 5.04517 1.4165 8.5 1.4165C11.9548 1.4165 15.12 3.95453 14.86 7.37823C14.8289 7.78831 14.7804 8.17595 14.7062 8.50711C14.3462 10.115 13.2521 11.613 12.1454 12.7919C11.0296 13.9804 9.85021 14.8975 9.24192 15.3418C8.80136 15.6636 8.19864 15.6636 7.75808 15.3418C7.14979 14.8975 5.97038 13.9804 4.85462 12.7919C3.74789 11.613 2.65383 10.115 2.29378 8.50711C2.21963 8.17595 2.17112 7.78831 2.13998 7.37823Z" fill="#0063A9"/>
<path fill-rule="evenodd" clip-rule="evenodd" d="M8.5 6.65594C7.99428 6.65594 7.58431 7.0469 7.58431 7.52918C7.58431 8.01145 7.99428 8.40241 8.5 8.40241C9.00572 8.40241 9.41568 8.01145 9.41568 7.52918C9.41568 7.0469 9.00572 6.65594 8.5 6.65594ZM6.48549 7.52918C6.48549 6.46817 7.38742 5.60805 8.5 5.60805C9.61258 5.60805 10.5145 6.46817 10.5145 7.52918C10.5145 8.59018 9.61258 9.4503 8.5 9.4503C7.38742 9.4503 6.48549 8.59018 6.48549 7.52918Z" fill="#0063A9"/>
</svg>
