<svg width="115" height="30" viewBox="0 0 115 30" fill="none" xmlns="http://www.w3.org/2000/svg">
<path d="M61.3948 6.71802C58.3773 6.71802 56.2415 7.40955 55.0863 8.44684L55.3512 7.00435H51.5306L49.1611 20.0381H52.9817L54.4102 12.9067C54.861 10.4485 56.7798 8.50357 59.7325 8.11999C62.7839 7.7202 64.6604 9.63001 64.2237 12.0531L62.7614 20.0408H66.6242L68.0978 11.9477C68.6613 8.84123 65.6211 6.71802 61.3948 6.71802Z" fill="white"/>
<path d="M86.4052 3.04077L83.5877 18.4814L83.3003 20.0508H75.7916L75.8029 20.0373C71.2441 19.9482 67.7363 17.3414 68.1899 13.4516C68.6689 9.33479 73.0614 6.79558 77.344 6.8523H80.139L79.8714 8.15162H77.9752C74.0419 8.08679 72.0442 10.9799 72.0668 14.1944C72.0921 16.7552 74.1799 18.6705 76.9693 18.7839H79.784L82.6212 3.07319L86.4052 3.04077Z" fill="white"/>
<path d="M83.5995 18.4817L83.3008 20.0511L83.5882 18.4817H83.5995Z" fill="white"/>
<path d="M21.7792 3.03609L18.6826 20.038L22.4639 20.0029L25.5603 3.00098L21.7792 3.03609Z" fill="white"/>
<path d="M3.09076 3.53247L0 20.0401L3.78675 20.005L6.16748 6.32831L3.09076 3.53247Z" fill="white"/>
<path d="M114.713 8.2494L115 6.92307C113.969 6.89876 109.351 6.90146 108.221 6.90146C105.207 6.90146 103.353 8.95174 102.933 11.3586L101.417 20.0757H105.314L106.962 11.1884C107.385 8.75995 108.514 8.37096 110.83 8.27101C112.014 8.22239 113.518 8.22239 114.713 8.2494Z" fill="white"/>
<path d="M92.6911 12.7066H98.7037C99.1489 11.0777 98.498 8.19539 94.6887 8.17648C91.7754 8.16298 88.9917 10.3645 88.7466 14.2004C88.5832 16.7612 90.1919 18.7413 93.1475 18.7413H97.2554L97.0216 20.0352H92.336C88.2112 20.1135 84.0075 17.3096 84.709 13.4494C85.374 9.79185 89.5721 6.82313 94.6578 6.86095C99.6758 6.89877 102.868 9.15975 102.282 13.5629C102.259 13.733 102.257 13.7763 102.209 14.0059H92.4713L92.6911 12.7066Z" fill="white"/>
<path d="M40.2878 12.7095H46.3004C46.7455 11.0806 46.0947 8.19832 42.2854 8.17941C39.3721 8.16591 36.5884 10.3675 36.3432 14.2033C36.1798 16.7641 37.7887 18.7442 40.7443 18.7442H44.8523L44.6184 20.0381H39.9329C35.808 20.1164 31.6041 17.3125 32.3057 13.4523C32.9706 9.79478 37.1688 6.82606 42.2544 6.86388C47.2725 6.9017 50.4647 9.16268 49.8787 13.5658C49.8562 13.736 49.8506 13.7792 49.8055 14.0088H40.0681L40.2878 12.7095Z" fill="white"/>
<path d="M18.8017 17.5339C18.1678 19.5059 14.7585 20.5729 9.89263 20.1029C8.04997 19.9192 6.09177 19.5302 4.81543 18.8198C4.81543 18.8198 5.15353 16.8262 5.16762 16.8154C6.06078 17.434 8.5796 18.447 10.3237 18.6982C13.3469 19.1331 14.9276 18.3903 14.5106 17.2611C14.0711 16.0644 10.1152 14.5301 9.42777 14.187C6.29467 12.6149 5.76771 11.0643 6.24951 9.59484C6.90881 7.6337 11.2958 6.35869 15.6263 6.97999C17.5507 7.25552 18.9257 7.8282 20.0809 8.60887L18.7313 9.90819C18.0156 9.38144 16.5618 8.48191 14.9276 8.255C12.358 7.88763 10.1209 8.19557 9.97435 9.55703C9.82784 10.9023 13.4849 12.1881 15.2318 13.0957C18.0916 14.5733 19.2835 16.078 18.8017 17.5339Z" fill="white"/>
<path d="M27.7467 11.8343C26.8732 12.3853 26.9605 13.528 27.7128 14.1655L33.9396 20.0381H29.2202L25.0193 16.2752C23.5654 14.9732 23.8416 12.6555 25.58 11.5777L33.1619 7.09351L35.4469 7.12593L27.7467 11.8343Z" fill="white"/>
<path d="M6.9425 1.53704L6.48616 4.33287L1.71313 0H5.57046C6.42136 0 7.07492 0.72935 6.9425 1.53704Z" fill="#DD0613"/>
<path d="M23.3105 27.9232L23.5867 27.618C24.215 28.1744 24.7926 28.4311 25.635 28.4311C26.4915 28.4311 27.0776 27.9691 27.0776 27.3289C27.0776 26.7509 26.7592 26.4132 25.4632 26.1647C24.091 25.9 23.5388 25.4542 23.5388 24.6087C23.5388 23.7956 24.3137 23.1689 25.3731 23.1689C26.2042 23.1689 26.7536 23.3877 27.3312 23.8335L27.0607 24.1549C26.5226 23.7092 25.9845 23.5363 25.3561 23.5363C24.5165 23.5363 23.9614 23.9982 23.9614 24.5844C23.9614 25.1625 24.2714 25.5137 25.6266 25.7811C26.948 26.0404 27.5031 26.4915 27.5031 27.3073C27.5031 28.1907 26.7114 28.8011 25.6097 28.8011C24.6996 28.7984 23.998 28.5094 23.3105 27.9232Z" fill="white"/>
<path d="M28.3086 27.5478C28.3086 26.7185 29.0524 26.2485 30.1287 26.2485C30.7063 26.2485 31.1064 26.3187 31.5065 26.4214V26.2485C31.5065 25.4435 30.9936 25.0275 30.1371 25.0275C29.6299 25.0275 29.2158 25.1598 28.8326 25.3489L28.6861 25.0113C29.1425 24.8087 29.5906 24.6682 30.1626 24.6682C30.7261 24.6682 31.174 24.8168 31.4754 25.1058C31.7515 25.3705 31.901 25.7406 31.901 26.2323V28.7202H31.5093V28.0556C31.2247 28.4392 30.7091 28.8147 29.9174 28.8147C29.1398 28.8147 28.3086 28.3933 28.3086 27.5478ZM31.5149 27.2263V26.7725C31.1627 26.6861 30.7007 26.5915 30.1034 26.5915C29.2215 26.5915 28.734 26.967 28.734 27.537C28.734 28.1151 29.306 28.4527 29.94 28.4527C30.788 28.4554 31.5149 27.9557 31.5149 27.2263Z" fill="white"/>
<path d="M33.1738 24.7327H33.5739V25.4756C33.85 25.0056 34.3149 24.6382 35.0757 24.6382C36.1266 24.6382 36.7409 25.327 36.7409 26.2806V28.7198H36.3407V26.3508C36.3407 25.5296 35.8589 24.9894 35.0193 24.9894C34.2022 24.9894 33.5766 25.5836 33.5766 26.4129V28.7198H33.1766V24.7327H33.1738Z" fill="white"/>
<path d="M38.0234 23.1689H38.5193V23.693H38.0234V23.1689ZM38.0713 24.733H38.4714V28.7228H38.0713V24.733Z" fill="white"/>
<path d="M40.1059 27.6963V25.0842H39.5029V24.733H40.1059V23.458H40.506V24.733H41.9654V25.0842H40.506V27.6585C40.506 28.2285 40.8581 28.4338 41.3371 28.4338C41.5399 28.4338 41.7119 28.396 41.9486 28.2933V28.6526C41.7373 28.7471 41.5315 28.7931 41.2723 28.7931C40.6271 28.7931 40.1059 28.4554 40.1059 27.6963Z" fill="white"/>
<path d="M42.6445 27.5478C42.6445 26.7185 43.3883 26.2485 44.4646 26.2485C45.0422 26.2485 45.4424 26.3187 45.8425 26.4214V26.2485C45.8425 25.4435 45.3297 25.0275 44.4732 25.0275C43.966 25.0275 43.5517 25.1598 43.1686 25.3489L43.022 25.0113C43.4785 24.8087 43.9265 24.6682 44.4985 24.6682C45.062 24.6682 45.51 24.8168 45.8115 25.1058C46.0876 25.3705 46.2369 25.7406 46.2369 26.2323V28.7202H45.8452V28.0556C45.5606 28.4392 45.0451 28.8147 44.2533 28.8147C43.4785 28.8147 42.6445 28.3933 42.6445 27.5478ZM45.8509 27.2263V26.7725C45.4987 26.6861 45.0367 26.5915 44.4393 26.5915C43.5574 26.5915 43.0701 26.967 43.0701 27.537C43.0701 28.1151 43.6419 28.4527 44.2759 28.4527C45.124 28.4554 45.8509 27.9557 45.8509 27.2263Z" fill="white"/>
<path d="M47.5137 24.7337H47.9137V25.8683C48.2406 25.1578 48.9337 24.6392 49.7564 24.6716V25.093H49.7169C48.7533 25.093 47.9137 25.7899 47.9137 27.0866V28.7208H47.5137V24.7337Z" fill="white"/>
<path d="M50.297 29.8251L50.435 29.4901C50.6547 29.5928 50.8351 29.6387 51.145 29.6387C51.5789 29.6387 51.8634 29.3956 52.1734 28.7013L50.1758 24.7358H50.6406L52.3707 28.3015L53.8724 24.7358H54.312L52.5088 28.8661C52.1425 29.7035 51.7169 30.0007 51.1224 30.0007C50.8012 29.9953 50.5731 29.9412 50.297 29.8251Z" fill="white"/>
<path d="M57.1777 24.7333H57.6257L58.8823 28.2368L60.1389 24.717H60.4574L61.714 28.2368L62.9706 24.7333H63.4045L61.8802 28.7528H61.5365L60.2967 25.3356L59.0486 28.7528H58.7077L57.1777 24.7333Z" fill="white"/>
<path d="M63.8975 27.5478C63.8975 26.7185 64.6413 26.2485 65.7176 26.2485C66.2952 26.2485 66.6953 26.3187 67.0954 26.4214V26.2485C67.0954 25.4435 66.5825 25.0275 65.726 25.0275C65.2188 25.0275 64.8047 25.1598 64.4215 25.3489L64.275 25.0113C64.7314 24.8087 65.1795 24.6682 65.7514 24.6682C66.3149 24.6682 66.7628 24.8168 67.0643 25.1058C67.3404 25.3705 67.4898 25.7406 67.4898 26.2323V28.7202H67.0981V28.0556C66.8136 28.4392 66.298 28.8147 65.5063 28.8147C64.7314 28.8147 63.8975 28.3933 63.8975 27.5478ZM67.1038 27.2263V26.7725C66.7516 26.6861 66.2896 26.5915 65.6923 26.5915C64.8104 26.5915 64.3228 26.967 64.3228 27.537C64.3228 28.1151 64.8949 28.4527 65.5288 28.4527C66.3769 28.4554 67.1038 27.9557 67.1038 27.2263Z" fill="white"/>
<path d="M68.7627 24.7337H69.1628V25.8683C69.4896 25.1578 70.1827 24.6392 71.0054 24.6716V25.093H70.966C70.0024 25.093 69.1628 25.7899 69.1628 27.0866V28.7208H68.7627V24.7337Z" fill="white"/>
<path d="M71.3779 26.7182C71.3779 25.562 72.2261 24.6382 73.3531 24.6382C74.5196 24.6382 75.2606 25.5458 75.2606 26.7263C75.2606 26.7965 75.2605 26.8208 75.252 26.883H71.8006C71.8738 27.877 72.6177 28.4551 73.4319 28.4551C74.0771 28.4551 74.5166 28.1823 74.8604 27.8284L75.1365 28.0634C74.7138 28.501 74.2152 28.8144 73.415 28.8144C72.3218 28.8144 71.3779 27.977 71.3779 26.7182ZM74.8267 26.5399C74.7703 25.7349 74.2884 24.9921 73.3333 24.9921C72.5077 24.9921 71.8739 25.6566 71.7978 26.5399H74.8267Z" fill="white"/>
</svg>
