<svg width="18" height="18" viewBox="0 0 18 18" fill="none" xmlns="http://www.w3.org/2000/svg">
<path fill-rule="evenodd" clip-rule="evenodd" d="M4.44991 3.03689C3.07745 3.56457 1.98431 4.87171 1.98431 6.60359C1.98431 7.97356 2.60187 9.28688 3.59084 10.5547C4.58 11.8228 5.8999 12.9937 7.2183 14.0726C7.75514 14.512 8.11371 14.804 8.4124 14.9928C8.69654 15.1724 8.86068 15.2147 8.99997 15.2147C9.13927 15.2147 9.30341 15.1724 9.58754 14.9928C9.88623 14.804 10.2448 14.512 10.7816 14.0726C12.1 12.9937 13.4199 11.8228 14.4091 10.5547C15.3981 9.28688 16.0156 7.97356 16.0156 6.60359C16.0156 4.87171 14.9225 3.56457 13.55 3.03689C12.1901 2.51401 10.59 2.7654 9.50659 4.15098C9.38592 4.3053 9.19862 4.39582 8.99997 4.39582C8.80133 4.39582 8.61403 4.3053 8.49336 4.15098C7.40991 2.7654 5.80989 2.51401 4.44991 3.03689ZM8.99997 2.83229C7.55719 1.45358 5.61241 1.24944 3.98323 1.87583C2.16676 2.57422 0.70874 4.31414 0.70874 6.60359C0.70874 8.35162 1.4971 9.9274 2.5767 11.3114C3.65612 12.6953 5.06746 13.9391 6.39973 15.0294L6.42992 15.0541C6.92859 15.4622 7.34728 15.8049 7.71994 16.0405C8.11466 16.2901 8.52157 16.4623 8.99997 16.4623C9.47838 16.4623 9.88529 16.2901 10.28 16.0405C10.6527 15.8049 11.0714 15.4622 11.57 15.0541L11.6002 15.0294C12.9325 13.9391 14.3438 12.6953 15.4233 11.3114C16.5029 9.9274 17.2912 8.35162 17.2912 6.60359C17.2912 4.31414 15.8332 2.57422 14.0167 1.87583C12.3875 1.24944 10.4428 1.45358 8.99997 2.83229Z" fill="#717171"/>
</svg>
