<svg width="402" height="180" viewBox="0 0 402 180" fill="none" xmlns="http://www.w3.org/2000/svg">
<g clip-path="url(#clip0_29_629)">
<rect width="402" height="180" rx="9" fill="#F0F9FF"/>
<rect y="0.000976562" width="401.69" height="181.48" rx="11.0658" fill="#F0F9FF"/>
<ellipse cx="39.8343" cy="152.712" rx="55.3292" ry="55.3292" fill="#D7EEFE"/>
<path d="M371.546 144.715C371.546 144.715 378.092 131.024 377.849 108.671C377.607 86.3176 365.971 65.3615 351.669 59.4937C337.366 53.626 324.761 61.1702 307.792 62.0085C290.823 62.8467 280.885 38.2582 256.643 49.9936C232.402 61.7291 232.402 85.4794 236.523 96.9354C240.644 108.391 248.401 113.98 239.917 122.083C231.433 130.186 223.191 135.215 220.767 138.289C219.333 140.07 218.404 142.311 218.1 144.715H371.546Z" fill="#0B71BB"/>
<path opacity="0.7" d="M371.546 144.715C371.546 144.715 378.092 131.024 377.849 108.671C377.607 86.3176 365.971 65.3615 351.669 59.4937C337.366 53.626 324.761 61.1702 307.792 62.0085C290.823 62.8467 280.885 38.2582 256.643 49.9936C232.402 61.7291 232.402 85.4794 236.523 96.9354C240.644 108.391 248.401 113.98 239.917 122.083C231.433 130.186 223.191 135.215 220.767 138.289C219.333 140.07 218.404 142.311 218.1 144.715H371.546Z" fill="white"/>
<g opacity="0.2">
<path d="M264.886 46.1143C263.713 46.1154 262.566 46.5173 261.591 47.2694C260.616 48.0214 259.856 49.0897 259.407 50.3393C258.959 51.589 258.842 52.9638 259.071 54.2902C259.3 55.6165 259.865 56.8348 260.695 57.791C261.524 58.7473 262.581 59.3986 263.732 59.6627C264.883 59.9268 266.075 59.7919 267.159 59.2748C268.244 58.7578 269.17 57.882 269.823 56.758C270.475 55.634 270.824 54.3123 270.825 52.9599C270.825 51.1444 270.199 49.4031 269.085 48.1193C267.972 46.8355 266.461 46.1143 264.886 46.1143ZM265.49 57.1316V57.791H264.484V57.1316C263.599 56.9276 263.153 56.1397 263.153 54.9159V54.2983H264.316V55.0053C264.316 55.6507 264.559 55.8826 264.954 55.8826C265.349 55.8826 265.591 55.6507 265.591 55.0053C265.591 53.1499 263.187 53.0494 263.187 50.4815C263.187 49.2689 263.623 48.4977 264.484 48.2769V47.6063H265.49V48.2769C266.362 48.4837 266.808 49.2577 266.808 50.4815V50.7609H265.647V50.3921C265.647 49.7467 265.422 49.5008 265.031 49.5008C264.641 49.5008 264.416 49.7467 264.416 50.3921C264.416 52.2474 266.82 52.348 266.82 54.9159C266.825 56.1397 266.367 56.9276 265.494 57.1316H265.49Z" stroke="black" stroke-width="1.10658" stroke-linecap="round" stroke-linejoin="round"/>
<path d="M264.885 43.3647C263.24 43.3642 261.632 43.926 260.264 44.9792C258.896 46.0324 257.829 47.5297 257.199 49.2815C256.57 51.0334 256.405 52.9612 256.725 54.8211C257.046 56.681 257.839 58.3895 259.002 59.7304C260.165 61.0713 261.647 61.9844 263.261 62.3542C264.875 62.724 266.547 62.5339 268.067 61.808C269.587 61.082 270.886 59.8528 271.799 58.2759C272.713 56.6989 273.201 54.845 273.2 52.9487C273.2 50.4069 272.324 47.9692 270.765 46.1718C269.205 44.3745 267.091 43.3647 264.885 43.3647ZM264.885 60.8226C263.534 60.8215 262.214 60.3586 261.091 59.4923C259.968 58.6261 259.093 57.3955 258.577 55.9561C258.061 54.5168 257.927 52.9333 258.191 51.4061C258.456 49.8788 259.108 48.4764 260.064 47.3761C261.02 46.2758 262.238 45.5271 263.564 45.2246C264.889 44.9222 266.263 45.0797 267.511 45.6771C268.758 46.2745 269.824 47.285 270.574 48.5809C271.324 49.8767 271.723 51.3997 271.721 52.9571C271.718 55.0442 270.996 57.0444 269.714 58.5189C268.433 59.9934 266.696 60.8219 264.885 60.8226Z" stroke="black" stroke-width="1.10658" stroke-linecap="round" stroke-linejoin="round"/>
</g>
<g opacity="0.2">
<path d="M314.314 47.3491C313.455 47.3491 312.616 47.6426 311.902 48.1925C311.188 48.7424 310.631 49.524 310.303 50.4384C309.974 51.3528 309.888 52.359 310.055 53.3298C310.223 54.3005 310.636 55.1922 311.244 55.8921C311.851 56.5919 312.624 57.0685 313.467 57.2616C314.309 57.4547 315.182 57.3556 315.975 56.9769C316.768 56.5981 317.446 55.9567 317.924 55.1337C318.401 54.3108 318.655 53.3432 318.655 52.3535C318.654 51.0267 318.196 49.7547 317.382 48.8165C316.568 47.8783 315.465 47.3506 314.314 47.3491ZM314.755 55.4131V55.8936H314.028V55.4131C313.38 55.2622 313.058 54.6866 313.058 53.7896V53.337H313.909V53.8567C313.909 54.3289 314.091 54.4966 314.377 54.4966C314.663 54.4966 314.842 54.3289 314.842 53.8567C314.842 52.4988 313.082 52.4317 313.082 50.5456C313.082 49.6599 313.402 49.0927 314.032 48.9334V48.4416H314.76V48.9334C315.397 49.0843 315.729 49.6487 315.729 50.5456V50.7524H314.878V50.473C314.878 50.0036 314.716 49.8219 314.428 49.8219C314.139 49.8219 313.979 50.0036 313.979 50.473C313.979 51.8309 315.739 51.898 315.739 53.7841C315.729 54.6866 315.392 55.2622 314.755 55.4131Z" stroke="black" stroke-width="1.10658" stroke-linecap="round" stroke-linejoin="round"/>
<path d="M314.314 45.3398C313.11 45.3398 311.934 45.7512 310.933 46.5218C309.933 47.2924 309.153 48.3878 308.692 49.6693C308.232 50.9508 308.111 52.361 308.346 53.7214C308.581 55.0819 309.16 56.3315 310.011 57.3123C310.862 58.2932 311.946 58.9611 313.127 59.2317C314.307 59.5024 315.53 59.3635 316.642 58.8326C317.754 58.3018 318.704 57.4029 319.373 56.2496C320.041 55.0962 320.398 53.7403 320.398 52.3532C320.398 50.4931 319.757 48.7093 318.616 47.394C317.475 46.0787 315.927 45.3398 314.314 45.3398ZM314.314 58.1147C313.325 58.1147 312.359 57.7768 311.537 57.1437C310.715 56.5106 310.074 55.6108 309.696 54.558C309.317 53.5052 309.218 52.3468 309.411 51.2292C309.604 50.1115 310.08 49.0849 310.779 48.2791C311.478 47.4734 312.369 46.9246 313.338 46.7023C314.308 46.48 315.313 46.5941 316.226 47.0302C317.14 47.4663 317.92 48.2047 318.47 49.1522C319.019 50.0997 319.312 51.2136 319.312 52.3532C319.311 53.8808 318.784 55.3454 317.847 56.4256C316.909 57.5057 315.639 58.1132 314.314 58.1147Z" stroke="black" stroke-width="1.10658" stroke-linecap="round" stroke-linejoin="round"/>
</g>
<g opacity="0.2">
<path d="M223.644 91.7183C222.785 91.7183 221.946 92.0118 221.232 92.5616C220.518 93.1115 219.961 93.8931 219.632 94.8075C219.304 95.7219 219.218 96.7281 219.385 97.6989C219.553 98.6696 219.966 99.5613 220.574 100.261C221.181 100.961 221.954 101.438 222.797 101.631C223.639 101.824 224.512 101.725 225.305 101.346C226.098 100.967 226.776 100.326 227.253 99.5028C227.731 98.6799 227.985 97.7124 227.985 96.7226C227.984 95.3958 227.526 94.1238 226.712 93.1856C225.898 92.2475 224.795 91.7197 223.644 91.7183ZM224.085 99.7822V100.263H223.358V99.7822C222.71 99.6313 222.388 99.0557 222.388 98.1588V97.7061H223.239V98.2258C223.239 98.6981 223.418 98.8685 223.707 98.8685C223.995 98.8685 224.158 98.6981 224.158 98.2258C224.158 96.8679 222.398 96.8008 222.398 94.9148C222.398 94.029 222.718 93.4618 223.348 93.3025V92.8108H224.075V93.3025C224.713 93.4534 225.045 94.0178 225.045 94.9148V95.1215H224.199V94.8421C224.199 94.3727 224.034 94.1939 223.748 94.1939C223.462 94.1939 223.299 94.3727 223.299 94.8421C223.299 96.2029 225.057 96.2671 225.057 98.1532C225.057 99.0641 224.722 99.6229 224.085 99.7822Z" stroke="black" stroke-width="1.10658" stroke-linecap="round" stroke-linejoin="round"/>
<path d="M223.645 89.7061C222.442 89.7072 221.266 90.1194 220.266 90.8907C219.266 91.662 218.487 92.7578 218.027 94.0394C217.567 95.321 217.447 96.731 217.683 98.091C217.918 99.4511 218.498 100.7 219.349 101.681C220.2 102.661 221.284 103.328 222.464 103.598C223.644 103.869 224.868 103.729 225.979 103.198C227.091 102.667 228.041 101.768 228.709 100.615C229.377 99.462 229.734 98.1063 229.734 96.7194C229.734 95.798 229.576 94.8857 229.27 94.0346C228.964 93.1835 228.515 92.4103 227.95 91.7591C227.384 91.1078 226.713 90.5913 225.974 90.2391C225.236 89.8868 224.444 89.7057 223.645 89.7061ZM223.645 102.481C222.656 102.481 221.69 102.143 220.868 101.51C220.046 100.877 219.405 99.977 219.027 98.9242C218.648 97.8714 218.549 96.713 218.742 95.5954C218.935 94.4777 219.411 93.4511 220.11 92.6454C220.809 91.8396 221.7 91.2909 222.67 91.0685C223.639 90.8462 224.644 90.9603 225.558 91.3964C226.471 91.8325 227.252 92.571 227.801 93.5184C228.35 94.4659 228.643 95.5799 228.643 96.7194C228.642 98.247 228.115 99.7116 227.178 100.792C226.241 101.872 224.97 102.479 223.645 102.481Z" stroke="black" stroke-width="1.10658" stroke-linecap="round" stroke-linejoin="round"/>
</g>
<g opacity="0.2">
<path d="M371.408 86.1519C370.55 86.1519 369.71 86.4454 368.996 86.9952C368.282 87.5451 367.726 88.3267 367.397 89.2411C367.069 90.1555 366.983 91.1617 367.15 92.1325C367.318 93.1032 367.731 93.9949 368.338 94.6948C368.945 95.3947 369.719 95.8713 370.561 96.0644C371.403 96.2575 372.276 96.1584 373.07 95.7796C373.863 95.4008 374.541 94.7594 375.018 93.9364C375.495 93.1135 375.75 92.146 375.75 91.1562C375.749 89.8294 375.291 88.5574 374.477 87.6192C373.663 86.681 372.559 86.1533 371.408 86.1519ZM371.849 94.2158V94.6964H371.122V94.2158C370.477 94.0649 370.153 93.4893 370.153 92.5924V92.1397H371.003V92.6594C371.003 93.1289 371.183 93.2993 371.469 93.2993C371.755 93.2993 371.934 93.1289 371.934 92.6594C371.934 91.2987 370.177 91.2344 370.177 89.3484C370.177 88.4598 370.494 87.8954 371.125 87.7333V87.2444H371.852V87.7333C372.489 87.8842 372.822 88.4514 372.822 89.3484V89.5607H371.971V89.2813C371.971 88.8091 371.808 88.6303 371.522 88.6303C371.236 88.6303 371.064 88.8091 371.064 89.2813C371.064 90.6393 372.824 90.7063 372.824 92.5924C372.824 93.4893 372.487 94.0649 371.849 94.2158Z" stroke="black" stroke-width="1.10658" stroke-linecap="round" stroke-linejoin="round"/>
<path d="M371.408 84.1426C370.205 84.1426 369.028 84.5539 368.028 85.3245C367.027 86.0952 366.247 87.1905 365.787 88.472C365.326 89.7535 365.206 91.1637 365.441 92.5241C365.675 93.8846 366.255 95.1342 367.106 96.1151C367.957 97.0959 369.041 97.7639 370.221 98.0345C371.401 98.3051 372.625 98.1662 373.737 97.6354C374.848 97.1046 375.799 96.2056 376.467 95.0523C377.136 93.899 377.493 92.543 377.493 91.1559C377.493 90.2349 377.335 89.3229 377.03 88.472C376.724 87.6211 376.276 86.848 375.711 86.1967C375.146 85.5455 374.475 85.0289 373.737 84.6764C372.998 84.324 372.207 84.1426 371.408 84.1426ZM371.408 96.9175C370.419 96.9197 369.452 96.5836 368.628 95.9519C367.805 95.3202 367.163 94.4211 366.783 93.3685C366.403 92.3159 366.303 91.1571 366.495 90.0388C366.687 88.9204 367.162 87.8927 367.861 87.0858C368.559 86.279 369.45 85.7291 370.42 85.5059C371.39 85.2827 372.395 85.3961 373.309 85.8319C374.223 86.2676 375.004 87.0061 375.554 87.9538C376.104 88.9015 376.397 90.0159 376.397 91.1559C376.396 92.6816 375.87 94.1445 374.935 95.2244C374 96.3042 372.732 96.913 371.408 96.9175Z" stroke="black" stroke-width="1.10658" stroke-linecap="round" stroke-linejoin="round"/>
</g>
<path d="M213.735 144.857H375.181" stroke="#263238" stroke-width="1.10658" stroke-linecap="round" stroke-linejoin="round"/>
<path d="M223.351 120.296C224.079 120.656 225.822 120.609 225.824 120.609C225.826 120.609 225.446 119.287 225.412 119.212C225.029 118.284 223.812 116.753 222.82 116.907C222.657 116.938 222.501 117.008 222.362 117.113C222.224 117.219 222.106 117.356 222.017 117.517C221.927 117.678 221.868 117.859 221.844 118.048C221.819 118.237 221.829 118.43 221.873 118.614C222.037 119.385 222.74 119.972 223.351 120.296Z" fill="#0B71BB"/>
<path d="M223.96 126.133C224.702 126.256 226.268 125.733 226.384 125.691C226.642 126.723 226.959 127.734 227.334 128.717C227.548 129.293 227.78 129.863 228.02 130.433C227.877 130.193 227.749 129.977 227.727 129.95C227.143 129.173 225.62 128.063 224.699 128.516C224.549 128.596 224.414 128.711 224.304 128.854C224.195 128.997 224.113 129.166 224.063 129.348C224.014 129.531 223.998 129.723 224.018 129.913C224.037 130.103 224.091 130.285 224.176 130.45C224.515 131.162 225.33 131.514 225.989 131.626C226.648 131.738 227.999 131.324 228.352 131.207L228.634 131.861C229.087 132.9 229.543 133.934 229.962 134.968C230.11 135.331 230.246 135.694 230.381 136.058C230.253 135.845 230.139 135.666 230.139 135.641C229.555 134.862 228.03 133.755 227.111 134.205C226.96 134.284 226.825 134.399 226.714 134.542C226.604 134.685 226.521 134.854 226.471 135.037C226.421 135.219 226.405 135.412 226.423 135.602C226.442 135.793 226.496 135.976 226.58 136.141C226.92 136.854 227.732 137.206 228.391 137.318C229.051 137.429 230.272 137.052 230.694 136.918C230.823 137.295 230.951 137.675 231.063 138.036C231.133 138.293 231.215 138.533 231.274 138.796C231.332 139.058 231.4 139.307 231.46 139.561C231.562 140.053 231.671 140.559 231.761 141.042C231.824 141.378 231.88 141.699 231.938 142.02C231.795 141.657 231.499 140.953 231.467 140.903C230.983 140.031 229.632 138.667 228.665 138.947C228.506 138.999 228.357 139.09 228.23 139.212C228.103 139.335 227.999 139.487 227.926 139.659C227.853 139.831 227.813 140.018 227.807 140.209C227.801 140.401 227.83 140.591 227.892 140.768C228.134 141.531 228.893 142.023 229.528 142.247C230.231 142.495 231.783 142.269 231.977 142.247C232.071 142.783 232.156 143.303 232.219 143.797C232.275 144.163 232.326 144.513 232.372 144.851H232.995C232.936 144.474 232.871 144.082 232.801 143.672C232.709 143.127 232.6 142.554 232.483 141.956C232.951 141.74 233.408 141.493 233.85 141.216C234.362 141.855 235.671 142.613 235.841 142.696C235.664 143.202 235.484 143.691 235.31 144.149C235.22 144.393 235.13 144.622 235.041 144.851H235.7L235.855 144.415C236.039 143.904 236.226 143.35 236.413 142.783C236.599 142.828 238.139 143.188 238.854 143.001C239.503 142.833 240.291 142.409 240.582 141.668C240.655 141.497 240.696 141.309 240.703 141.118C240.709 140.927 240.68 140.737 240.619 140.56C240.558 140.382 240.464 140.222 240.346 140.088C240.227 139.955 240.085 139.851 239.93 139.785C238.982 139.419 237.537 140.657 237.021 141.484C236.99 141.534 236.701 142.107 236.524 142.473C236.599 142.238 236.674 142.015 236.75 141.774C236.902 141.299 237.041 140.819 237.191 140.305C237.256 140.053 237.322 139.799 237.39 139.545C237.457 139.29 237.506 139.014 237.567 138.746C237.695 138.122 237.809 137.483 237.891 136.837C238.253 136.988 239.542 137.505 240.209 137.452C240.875 137.399 241.707 137.117 242.092 136.435C242.188 136.278 242.254 136.1 242.285 135.912C242.317 135.724 242.314 135.531 242.277 135.345C242.239 135.158 242.168 134.983 242.068 134.83C241.967 134.678 241.84 134.551 241.695 134.459C240.808 133.931 239.215 134.906 238.585 135.63C238.543 135.675 238.141 136.256 237.925 136.577C237.979 136.189 238.032 135.8 238.076 135.406C238.199 134.264 238.291 133.104 238.391 131.947C238.42 131.592 238.454 131.24 238.485 130.888C238.614 130.941 240.134 131.595 240.883 131.534C241.547 131.481 242.381 131.198 242.764 130.517C242.859 130.36 242.925 130.183 242.957 129.995C242.989 129.807 242.986 129.614 242.948 129.428C242.91 129.242 242.839 129.067 242.739 128.914C242.639 128.762 242.512 128.636 242.366 128.544C241.479 128.016 239.889 128.988 239.256 129.712C239.208 129.768 238.628 130.603 238.49 130.83C238.563 130.053 238.64 129.279 238.733 128.519C238.867 127.492 239.06 126.477 239.309 125.479C239.368 125.504 240.953 126.194 241.719 126.133C242.383 126.077 243.217 125.797 243.603 125.116C243.698 124.959 243.763 124.781 243.795 124.593C243.826 124.405 243.823 124.212 243.786 124.026C243.748 123.839 243.677 123.664 243.577 123.512C243.477 123.359 243.35 123.233 243.205 123.14C242.315 122.612 240.725 123.584 240.092 124.311C240.044 124.367 239.421 125.267 239.319 125.429C239.334 125.37 239.343 125.308 239.358 125.253C239.631 124.259 239.981 123.296 240.403 122.375C240.631 121.863 240.873 121.388 241.13 120.93C241.414 121.095 242.715 121.824 243.411 121.855C244.107 121.886 244.931 121.712 245.379 121.084C245.489 120.94 245.571 120.771 245.621 120.589C245.67 120.406 245.685 120.213 245.666 120.023C245.647 119.833 245.593 119.65 245.508 119.486C245.423 119.321 245.309 119.179 245.173 119.069C244.34 118.432 242.667 119.198 241.969 119.84C241.93 119.874 241.578 120.279 241.326 120.575C241.44 120.371 241.552 120.159 241.663 119.966C242.083 119.242 242.504 118.605 242.875 118.049C243.094 117.733 243.295 117.451 243.484 117.191C243.835 117.191 245.249 117.136 245.867 116.8C246.485 116.465 247.159 115.867 247.307 115.071C247.346 114.885 247.351 114.692 247.322 114.504C247.293 114.315 247.229 114.137 247.136 113.978C247.043 113.82 246.922 113.687 246.781 113.586C246.64 113.485 246.482 113.42 246.318 113.394C245.324 113.268 244.136 114.839 243.782 115.778C243.75 115.859 243.384 117.194 243.404 117.194H243.426C243.237 117.443 243.038 117.708 242.824 118.004C242.437 118.563 242.003 119.181 241.569 119.896C241.096 120.664 240.661 121.463 240.267 122.288C239.822 123.211 239.45 124.178 239.154 125.177C239.155 125.189 239.155 125.201 239.154 125.213C239.154 124.875 239.154 123.931 239.14 123.858C239.023 122.841 238.284 120.947 237.3 120.737C237.136 120.708 236.968 120.718 236.808 120.768C236.648 120.818 236.499 120.907 236.37 121.028C236.242 121.149 236.137 121.3 236.062 121.47C235.987 121.641 235.945 121.829 235.938 122.02C235.879 122.83 236.388 123.64 236.885 124.152C237.445 124.73 239.002 125.289 239.125 125.331C238.847 126.356 238.628 127.402 238.468 128.46C238.374 129.075 238.294 129.701 238.226 130.327C238.226 130.033 238.226 129.768 238.214 129.737C238.097 128.717 237.356 126.826 236.374 126.616C236.21 126.586 236.042 126.597 235.882 126.647C235.722 126.697 235.573 126.785 235.444 126.906C235.316 127.027 235.211 127.178 235.136 127.349C235.061 127.52 235.019 127.707 235.012 127.899C234.953 128.706 235.462 129.519 235.959 130.031C236.456 130.542 237.782 131.056 238.141 131.185C238.117 131.425 238.088 131.665 238.063 131.905C237.942 133.062 237.821 134.216 237.685 135.342C237.634 135.742 237.574 136.13 237.511 136.519C237.511 136.262 237.511 136.041 237.511 136.01C237.397 134.99 236.655 133.096 235.673 132.886C235.509 132.857 235.342 132.868 235.182 132.918C235.022 132.968 234.873 133.057 234.744 133.178C234.616 133.299 234.511 133.449 234.436 133.62C234.362 133.791 234.319 133.978 234.311 134.169C234.253 134.979 234.762 135.789 235.259 136.301C235.756 136.812 236.956 137.279 237.368 137.432C237.295 137.829 237.222 138.229 237.125 138.609C237.06 138.866 237.014 139.12 236.939 139.377C236.864 139.634 236.796 139.883 236.725 140.134C236.575 140.609 236.425 141.101 236.267 141.559C236.161 141.881 236.054 142.185 235.947 142.49C236.001 142.096 236.093 141.319 236.095 141.252C236.082 140.348 235.87 139.462 235.479 138.678C235.482 138.577 235.476 138.476 235.462 138.377C235.442 138.186 235.387 138.002 235.3 137.838C235.213 137.673 235.098 137.532 234.96 137.423C234.823 137.314 234.667 137.24 234.503 137.205C234.339 137.171 234.17 137.177 234.008 137.223C233.038 137.519 232.43 139.458 232.384 140.497C232.384 140.559 232.415 141.218 232.442 141.637C232.393 141.394 232.35 141.16 232.297 140.911C232.195 140.419 232.083 139.93 231.962 139.405C231.897 139.153 231.829 138.899 231.761 138.645C231.693 138.391 231.606 138.128 231.518 137.865C231.327 137.265 231.109 136.664 230.876 136.066C231.252 135.963 232.573 135.574 233.104 135.105C233.635 134.635 234.192 133.873 234.187 133.059C234.192 132.868 234.162 132.678 234.099 132.501C234.036 132.324 233.941 132.164 233.821 132.032C233.7 131.901 233.557 131.799 233.401 131.736C233.244 131.672 233.078 131.647 232.912 131.662C231.918 131.788 231.055 133.618 230.876 134.619C230.876 134.68 230.806 135.42 230.781 135.826C230.638 135.468 230.498 135.11 230.345 134.753C229.901 133.722 229.424 132.696 228.951 131.679C228.808 131.366 228.665 131.05 228.525 130.735C228.658 130.701 230.238 130.276 230.832 129.751C231.361 129.285 231.921 128.519 231.916 127.706C231.921 127.515 231.891 127.324 231.828 127.147C231.764 126.97 231.67 126.811 231.549 126.679C231.429 126.547 231.286 126.446 231.129 126.382C230.973 126.318 230.806 126.293 230.641 126.309C229.647 126.432 228.784 128.265 228.605 129.262C228.59 129.34 228.508 130.402 228.498 130.676C228.185 129.98 227.88 129.279 227.601 128.586C227.224 127.644 226.9 126.675 226.631 125.686C226.694 125.669 228.345 125.236 228.954 124.697C229.482 124.23 230.042 123.464 230.037 122.651C230.042 122.46 230.012 122.269 229.949 122.092C229.885 121.915 229.79 121.755 229.67 121.623C229.549 121.491 229.406 121.39 229.249 121.327C229.092 121.263 228.925 121.238 228.76 121.254C227.768 121.377 226.905 123.21 226.726 124.208C226.711 124.289 226.622 125.431 226.619 125.641C226.605 125.585 226.583 125.526 226.568 125.468C226.32 124.463 226.151 123.434 226.062 122.394C226.006 121.821 225.982 121.276 225.967 120.734C226.282 120.69 227.717 120.472 228.311 120.055C228.905 119.639 229.511 118.968 229.584 118.161C229.607 117.972 229.596 117.779 229.55 117.595C229.504 117.411 229.425 117.24 229.317 117.094C229.21 116.948 229.078 116.83 228.928 116.747C228.778 116.664 228.615 116.618 228.449 116.613C227.451 116.613 226.42 118.312 226.144 119.29C226.13 119.346 226.03 119.905 225.962 120.312C225.962 120.072 225.95 119.821 225.962 119.589C225.962 118.72 226.011 117.912 226.057 117.217C226.088 116.814 226.12 116.454 226.156 116.116C226.445 115.887 227.611 114.945 227.955 114.274C228.299 113.604 228.585 112.673 228.326 111.916C228.27 111.736 228.183 111.571 228.068 111.432C227.954 111.294 227.815 111.184 227.662 111.112C227.508 111.039 227.343 111.004 227.178 111.01C227.012 111.016 226.849 111.062 226.699 111.145C225.812 111.673 225.579 113.732 225.73 114.747C225.744 114.836 226.079 116.18 226.093 116.169H226.11C226.071 116.493 226.033 116.842 225.999 117.222C225.938 117.929 225.875 118.728 225.856 119.6C225.828 120.542 225.847 121.485 225.914 122.425C225.985 123.477 226.137 124.52 226.37 125.54V125.577C226.212 125.297 225.749 124.512 225.708 124.459C225.124 123.679 223.601 122.573 222.68 123.023C222.529 123.103 222.395 123.218 222.285 123.362C222.175 123.505 222.093 123.674 222.044 123.856C221.994 124.039 221.979 124.232 221.998 124.422C222.018 124.612 222.072 124.795 222.156 124.959C222.486 125.669 223.301 126.021 223.96 126.133Z" fill="#0B71BB"/>
<path d="M241.085 120.723C241.1 120.723 241.403 119.379 241.415 119.289C241.539 118.272 241.255 116.216 240.356 115.721C240.204 115.643 240.04 115.602 239.874 115.602C239.709 115.601 239.544 115.641 239.393 115.718C239.241 115.796 239.105 115.909 238.994 116.051C238.883 116.193 238.8 116.361 238.748 116.543C238.506 117.306 238.811 118.242 239.175 118.887C239.599 119.644 241.083 120.72 241.085 120.723Z" fill="#0B71BB"/>
<path d="M344.63 111.88C345.6 112.364 347.944 112.302 347.946 112.302C347.949 112.302 347.439 110.528 347.396 110.422C346.879 109.175 345.248 107.122 343.92 107.328C343.7 107.369 343.49 107.463 343.303 107.604C343.117 107.745 342.959 107.93 342.839 108.146C342.719 108.362 342.639 108.605 342.606 108.859C342.573 109.113 342.587 109.372 342.647 109.62C342.868 110.679 343.811 111.467 344.63 111.88Z" fill="#0B71BB"/>
<path d="M345.445 119.737C346.441 119.904 348.541 119.203 348.708 119.144C349.054 120.53 349.48 121.887 349.983 123.207C350.271 123.978 350.582 124.744 350.904 125.507C350.713 125.182 350.538 124.895 350.511 124.858C349.726 123.816 347.682 122.33 346.449 122.933C346.246 123.04 346.065 123.195 345.918 123.388C345.771 123.581 345.661 123.807 345.595 124.052C345.528 124.297 345.508 124.555 345.534 124.81C345.56 125.065 345.632 125.311 345.746 125.532C346.201 126.487 347.292 126.96 348.17 127.108C349.047 127.256 350.868 126.703 351.343 126.549C351.469 126.842 351.585 127.133 351.719 127.423C352.325 128.82 352.931 130.218 353.5 131.592C353.701 132.081 353.881 132.57 354.063 133.056C353.893 132.777 353.748 132.531 353.721 132.498C352.938 131.453 350.894 129.969 349.66 130.572C349.458 130.679 349.277 130.833 349.13 131.026C348.982 131.218 348.872 131.444 348.806 131.689C348.739 131.934 348.718 132.193 348.745 132.447C348.771 132.702 348.843 132.948 348.957 133.168C349.413 134.124 350.504 134.596 351.382 134.747C352.259 134.898 353.903 134.392 354.468 134.213C354.642 134.719 354.817 135.225 354.952 135.725C355.047 136.069 355.158 136.393 355.236 136.745C355.314 137.097 355.403 137.432 355.478 137.773C355.614 138.432 355.76 139.111 355.881 139.76C355.966 140.209 356.041 140.64 356.123 141.073C355.929 140.584 355.534 139.639 355.493 139.564C354.858 138.396 353.03 136.571 351.733 136.951C351.519 137.022 351.32 137.143 351.149 137.308C350.978 137.473 350.84 137.677 350.742 137.907C350.644 138.138 350.589 138.39 350.581 138.646C350.573 138.903 350.612 139.158 350.696 139.396C351.02 140.422 352.036 141.073 352.892 141.38C353.832 141.713 355.917 141.408 356.177 141.38C356.303 142.098 356.419 142.797 356.518 143.459C356.591 143.948 356.661 144.42 356.724 144.873H357.558C357.478 144.37 357.393 143.842 357.299 143.291C357.173 142.562 357.027 141.785 356.872 140.989C357.5 140.701 358.112 140.369 358.705 139.997C359.391 140.852 361.148 141.855 361.371 141.981C361.129 142.66 360.887 143.317 360.661 143.937C360.537 144.264 360.419 144.571 360.297 144.878H361.182C361.25 144.686 361.32 144.496 361.391 144.295C361.633 143.607 361.888 142.867 362.137 142.104C362.38 142.165 364.452 142.649 365.415 142.383C366.287 142.157 367.354 141.587 367.732 140.595C367.83 140.366 367.884 140.115 367.892 139.86C367.901 139.605 367.862 139.35 367.78 139.113C367.697 138.876 367.573 138.662 367.414 138.484C367.255 138.306 367.065 138.168 366.857 138.08C365.587 137.586 363.648 139.251 362.937 140.36C362.896 140.425 362.511 141.199 362.273 141.685C362.375 141.372 362.474 141.07 362.576 140.749C362.78 140.112 362.964 139.469 363.168 138.776L363.432 137.756C363.526 137.415 363.589 137.044 363.674 136.686C363.846 135.848 363.987 134.993 364.111 134.124C364.595 134.328 366.324 135.021 367.218 134.948C368.113 134.875 369.23 134.498 369.747 133.585C369.874 133.374 369.962 133.136 370.005 132.884C370.047 132.632 370.043 132.373 369.993 132.123C369.942 131.873 369.847 131.638 369.713 131.434C369.578 131.229 369.408 131.059 369.213 130.936C368.021 130.226 365.888 131.531 365.039 132.506C364.986 132.565 364.445 133.344 364.154 133.777C364.227 133.255 364.3 132.735 364.355 132.204C364.52 130.67 364.646 129.117 364.777 127.563C364.818 127.088 364.862 126.616 364.906 126.141C365.078 126.216 367.117 127.091 368.12 127.01C369.012 126.937 370.132 126.56 370.648 125.646C370.776 125.436 370.864 125.197 370.906 124.945C370.949 124.693 370.945 124.434 370.894 124.184C370.844 123.933 370.749 123.698 370.615 123.494C370.48 123.289 370.31 123.119 370.115 122.995C368.922 122.288 366.787 123.593 365.941 124.565C365.875 124.64 365.1 125.758 364.913 126.054C365.01 125.012 365.114 123.973 365.252 122.953C365.433 121.575 365.69 120.213 366.023 118.873C366.103 118.907 368.229 119.832 369.257 119.751C370.149 119.678 371.267 119.301 371.783 118.384C371.911 118.174 371.998 117.936 372.041 117.684C372.083 117.432 372.079 117.173 372.029 116.923C371.978 116.673 371.883 116.438 371.749 116.234C371.615 116.029 371.445 115.859 371.25 115.735C370.059 115.026 367.924 116.333 367.075 117.306C367.01 117.381 366.174 118.585 366.035 118.817C366.057 118.739 366.069 118.658 366.091 118.58C366.467 117.242 366.947 115.946 367.524 114.707C367.829 114.02 368.154 113.38 368.493 112.768C368.874 112.989 370.622 113.967 371.555 114.009C372.447 114.051 373.596 113.816 374.195 112.975C374.342 112.782 374.453 112.556 374.519 112.311C374.585 112.066 374.606 111.808 374.58 111.553C374.554 111.298 374.482 111.052 374.368 110.832C374.254 110.611 374.101 110.421 373.919 110.273C372.801 109.418 370.554 110.446 369.618 111.304C369.567 111.351 369.097 111.893 368.758 112.293C368.91 112.014 369.061 111.734 369.211 111.474C369.773 110.502 370.338 109.65 370.845 108.901C371.133 108.476 371.405 108.102 371.662 107.753C372.132 107.753 374.028 107.677 374.857 107.227C375.686 106.777 376.59 105.973 376.796 104.905C376.849 104.656 376.857 104.397 376.818 104.145C376.778 103.892 376.693 103.652 376.568 103.44C376.443 103.228 376.281 103.048 376.092 102.913C375.902 102.778 375.691 102.69 375.47 102.656C374.137 102.488 372.561 104.595 372.076 105.855C372.035 105.964 371.548 107.755 371.572 107.753H371.599C371.356 108.082 371.08 108.44 370.796 108.837C370.275 109.577 369.691 110.415 369.099 111.379C368.464 112.409 367.88 113.48 367.352 114.587C366.755 115.824 366.256 117.12 365.861 118.46C365.856 118.476 365.852 118.493 365.849 118.51C365.849 118.057 365.849 116.792 365.827 116.694C365.672 115.327 364.678 112.782 363.359 112.503C363.139 112.464 362.915 112.478 362.7 112.546C362.485 112.613 362.285 112.732 362.113 112.894C361.94 113.056 361.8 113.259 361.699 113.488C361.599 113.717 361.542 113.968 361.531 114.224C361.454 115.311 362.137 116.398 362.804 117.085C363.556 117.859 365.643 118.608 365.808 118.667C365.435 120.04 365.141 121.44 364.928 122.858C364.799 123.696 364.685 124.52 364.595 125.372C364.595 124.981 364.595 124.632 364.578 124.585C364.423 123.215 363.429 120.673 362.111 120.393C361.891 120.353 361.666 120.367 361.451 120.434C361.236 120.501 361.036 120.619 360.863 120.782C360.69 120.944 360.549 121.146 360.449 121.375C360.348 121.604 360.291 121.855 360.281 122.112C360.205 123.199 360.889 124.286 361.556 124.973C362.222 125.66 363.999 126.35 364.465 126.524C364.431 126.845 364.392 127.169 364.358 127.49C364.198 129.041 364.043 130.589 363.851 132.101C363.783 132.634 363.701 133.157 363.609 133.68C363.609 133.333 363.609 133.04 363.592 132.995C363.439 131.626 362.445 129.083 361.127 128.804C360.906 128.764 360.682 128.779 360.467 128.846C360.252 128.913 360.051 129.032 359.879 129.194C359.706 129.356 359.565 129.559 359.465 129.788C359.364 130.017 359.307 130.268 359.296 130.525C359.219 131.612 359.905 132.699 360.571 133.386C361.238 134.073 362.843 134.694 363.4 134.903C363.303 135.434 363.206 135.968 363.09 136.479C363.005 136.826 362.942 137.167 362.848 137.51C362.753 137.854 362.656 138.192 362.562 138.527C362.36 139.164 362.157 139.824 361.946 140.441C361.803 140.869 361.66 141.28 361.517 141.688C361.59 141.157 361.713 140.117 361.713 140.028C361.7 138.814 361.416 137.625 360.889 136.574C360.891 136.44 360.884 136.305 360.867 136.172C360.839 135.917 360.766 135.672 360.65 135.453C360.535 135.233 360.381 135.044 360.198 134.898C360.015 134.751 359.807 134.651 359.588 134.603C359.37 134.556 359.145 134.562 358.928 134.621C357.631 135.018 356.812 137.639 356.746 139.016C356.746 139.097 356.79 139.983 356.826 140.542C356.761 140.218 356.7 139.902 356.63 139.57C356.494 138.907 356.341 138.254 356.181 137.549C356.092 137.212 356.003 136.871 355.912 136.527C355.83 136.186 355.704 135.834 355.6 135.485C355.343 134.677 355.049 133.872 354.739 133.07C355.241 132.931 357.013 132.411 357.726 131.779C358.438 131.148 359.18 130.128 359.18 129.036C359.186 128.779 359.145 128.524 359.06 128.287C358.975 128.05 358.848 127.836 358.687 127.66C358.525 127.483 358.333 127.348 358.123 127.262C357.914 127.177 357.69 127.143 357.469 127.164C356.135 127.331 354.979 129.779 354.737 131.128C354.722 131.212 354.642 132.204 354.608 132.752C354.419 132.271 354.23 131.791 354.024 131.31C353.428 129.93 352.788 128.552 352.155 127.172C351.961 126.75 351.772 126.334 351.58 125.906C351.76 125.859 353.881 125.291 354.678 124.585C355.386 123.959 356.133 122.933 356.133 121.841C356.139 121.584 356.098 121.329 356.012 121.092C355.927 120.855 355.799 120.642 355.638 120.465C355.476 120.289 355.284 120.154 355.074 120.069C354.864 119.984 354.641 119.951 354.419 119.971C353.088 120.136 351.932 122.584 351.689 123.933C351.67 124.037 351.559 125.465 351.546 125.828C351.127 124.897 350.715 123.964 350.334 123.034C349.825 121.77 349.388 120.47 349.025 119.142C349.11 119.119 351.323 118.538 352.14 117.817C352.851 117.188 353.595 116.163 353.595 115.073C353.601 114.817 353.561 114.561 353.476 114.324C353.391 114.087 353.264 113.873 353.102 113.696C352.941 113.519 352.749 113.384 352.539 113.299C352.329 113.213 352.105 113.18 351.883 113.201C350.55 113.366 349.394 115.814 349.151 117.166C349.134 117.272 349.013 118.806 349.008 119.086C348.989 119.01 348.96 118.932 348.941 118.857C348.611 117.508 348.387 116.129 348.269 114.735C348.194 113.967 348.16 113.229 348.141 112.5C348.562 112.441 350.49 112.145 351.292 111.589C352.094 111.033 352.904 110.13 353.001 109.043C353.031 108.789 353.014 108.531 352.952 108.285C352.89 108.038 352.783 107.81 352.639 107.614C352.496 107.418 352.318 107.26 352.117 107.148C351.917 107.037 351.699 106.975 351.476 106.967C350.136 106.967 348.754 109.25 348.385 110.563C348.364 110.633 348.23 111.385 348.143 111.933C348.143 111.608 348.128 111.273 348.143 110.963C348.143 109.795 348.208 108.728 348.271 107.778C348.313 107.241 348.356 106.755 348.405 106.302C348.793 105.995 350.344 104.732 350.829 103.832C351.314 102.933 351.675 101.681 351.326 100.667C351.251 100.425 351.133 100.204 350.98 100.018C350.826 99.8328 350.641 99.6864 350.435 99.5889C350.229 99.4914 350.008 99.4449 349.786 99.4525C349.563 99.46 349.345 99.5214 349.144 99.6327C347.951 100.342 347.639 103.106 347.835 104.467C347.855 104.584 348.303 106.386 348.32 106.372L348.342 106.353C348.288 106.789 348.238 107.258 348.191 107.769C348.109 108.717 348.024 109.787 348 110.96C347.962 112.223 347.988 113.487 348.08 114.746C348.173 116.162 348.377 117.564 348.688 118.938C348.688 118.952 348.688 118.968 348.688 118.985C348.478 118.602 347.857 117.557 347.801 117.485C347.018 116.44 344.975 114.956 343.741 115.559C343.538 115.666 343.358 115.821 343.211 116.014C343.064 116.207 342.953 116.433 342.887 116.678C342.821 116.923 342.8 117.182 342.826 117.437C342.852 117.692 342.924 117.937 343.038 118.158C343.469 119.116 344.56 119.589 345.445 119.737Z" fill="#0B71BB"/>
<path d="M368.428 112.472C368.447 112.489 368.854 110.67 368.869 110.553C369.034 109.187 368.656 106.434 367.448 105.764C367.245 105.658 367.026 105.604 366.803 105.603C366.58 105.602 366.36 105.656 366.157 105.759C365.953 105.863 365.771 106.015 365.622 106.206C365.473 106.396 365.36 106.621 365.291 106.865C364.969 107.89 365.378 109.147 365.863 110.011C366.433 111.033 368.425 112.472 368.428 112.472Z" fill="#0B71BB"/>
<g opacity="0.3">
<path d="M237.431 91.9643C239.007 92.5455 242.689 92.0062 242.691 92.0062C242.73 92.0062 241.647 89.3182 241.562 89.1562C240.577 87.3008 237.727 84.3837 235.674 84.9649C234.192 85.3757 233.514 87.2002 233.998 88.7957C234.483 90.3912 236.088 91.4725 237.431 91.9643Z" stroke="black" stroke-width="1.10658" stroke-linecap="round" stroke-linejoin="round"/>
<path d="M261.103 120.321C262 119.203 262.8 117.664 262.649 116.149C262.487 114.473 261.195 113.165 259.699 113.534C257.631 114.045 256.162 118.099 255.973 120.265C255.973 120.399 255.973 121.969 256.002 122.833C255.636 122.115 255.275 121.397 254.882 120.684C253.753 118.625 252.555 116.585 251.367 114.537C251.001 113.911 250.64 113.282 250.286 112.656C250.451 112.592 251.668 112.098 252.87 111.463" stroke="black" stroke-width="1.10658" stroke-linecap="round" stroke-linejoin="round"/>
<path d="M258.531 128.355C258.356 127.886 258.138 127.411 257.946 126.933C257.43 125.715 256.858 124.508 256.25 123.301C257.434 122.83 258.585 122.252 259.692 121.574" stroke="black" stroke-width="1.10658" stroke-linecap="round" stroke-linejoin="round"/>
<path d="M274.085 106.322C273.57 106.76 273.101 107.266 272.686 107.828C272.597 107.954 271.537 109.857 271.288 110.343C271.288 108.689 271.307 107.04 271.38 105.417C271.47 103.222 271.682 101.036 272.015 98.8728C272.146 98.9119 275.61 99.9625 277.21 99.6412C278.599 99.3618 280.301 98.5571 280.982 97.0259C281.663 95.4947 281.19 93.6086 279.77 92.9687C277.801 92.083 274.638 94.5307 273.445 96.2156C273.351 96.3469 272.211 98.395 272.027 98.7834C272.049 98.6576 272.056 98.5263 272.078 98.4006C272.466 96.2426 273.019 94.1284 273.731 92.083C274.114 90.9458 274.534 89.8868 274.96 88.8641C275.588 89.1435 278.47 90.345 279.937 90.2361C281.345 90.1327 283.113 89.5515 283.934 88.1181C284.756 86.6847 284.465 84.7455 283.117 83.9269C281.246 82.8092 277.867 84.8266 276.521 86.3522C276.446 86.4332 275.794 87.372 275.309 88.0622C275.508 87.604 275.707 87.129 275.906 86.6931C276.647 85.0613 277.413 83.6195 278.102 82.351C278.497 81.6329 278.868 80.9902 279.222 80.395C279.949 80.2917 282.923 79.8362 284.16 78.9728C285.396 78.1094 286.691 76.704 286.858 74.9883C287.025 73.2727 285.983 71.7136 284.46 71.708C282.347 71.708 280.16 75.2957 279.573 77.3662C279.522 77.545 279.011 80.4397 279.047 80.4397H279.093C278.744 80.9986 278.366 81.6161 277.986 82.2923C277.27 83.5496 276.475 84.9747 275.7 86.5925C274.848 88.3273 274.083 90.1177 273.411 91.9545C272.65 94.0078 272.049 96.1351 271.615 98.3112C271.615 98.3363 271.615 98.3643 271.615 98.3894C271.562 97.6797 271.356 95.6958 271.324 95.545C270.89 93.4298 268.97 89.6325 266.864 89.4397C265.346 89.3 264.197 90.7949 264.238 92.4798C264.28 94.1646 265.496 95.7769 266.638 96.7297C267.928 97.8026 271.307 98.585 271.576 98.6493C271.182 100.875 270.917 103.128 270.783 105.394C270.701 106.716 270.653 108.049 270.616 109.387C270.553 108.772 270.493 108.225 270.478 108.149C270.044 106.031 268.124 102.237 266.018 102.044C264.5 101.904 263.351 103.399 263.392 105.084C263.434 106.769 264.65 108.381 265.792 109.331C266.934 110.281 269.821 111.033 270.582 111.217C270.582 111.729 270.56 112.243 270.553 112.754C270.519 115.216 270.495 117.675 270.408 120.083C270.379 120.921 270.32 121.76 270.267 122.598C270.209 122.039 270.158 121.595 270.144 121.528C269.71 119.41 267.792 115.615 265.686 115.42C264.166 115.283 263.019 116.778 263.058 118.46C263.097 120.142 264.316 121.76 265.458 122.71C266.599 123.66 269.208 124.339 270.112 124.559C270.034 125.414 269.957 126.269 269.848 127.091C269.763 127.65 269.714 128.209 269.605 128.767C269.496 129.326 269.402 129.868 269.302 130.413C269.077 131.45 268.849 132.523 268.607 133.532C268.444 134.233 268.275 134.898 268.122 135.566C268.161 134.727 268.207 133.068 268.197 132.928C268.002 131.027 267.388 129.216 266.413 127.667C266.399 127.454 266.368 127.244 266.321 127.038C265.943 125.412 264.483 124.344 263.06 124.967C261.085 125.834 260.166 130.097 260.265 132.271C260.265 132.397 260.469 133.78 260.605 134.649C260.457 134.155 260.319 133.668 260.161 133.16C259.856 132.148 259.523 131.151 259.17 130.086" stroke="black" stroke-width="1.10658" stroke-linecap="round" stroke-linejoin="round"/>
<path d="M249.036 126.051C249.751 126.355 250.503 126.526 251.264 126.557C252.626 126.621 255.169 125.528 256.03 125.14C256.374 125.903 256.718 126.663 257.021 127.42C257.218 127.942 257.438 128.429 257.61 128.965C257.782 129.502 257.969 130.013 258.146 130.53C258.454 131.539 258.779 132.578 259.058 133.573C259.256 134.263 259.436 134.922 259.618 135.587C259.247 134.858 258.493 133.45 258.418 133.338C257.254 131.628 254.132 129.108 252.149 129.949C250.719 130.555 250.226 132.463 250.869 133.978C251.511 135.492 253.208 136.364 254.592 136.677C256.115 137.018 259.341 136.155 259.744 136.043C260.039 137.144 260.321 138.219 260.57 139.239C260.756 139.994 260.931 140.72 261.094 141.419L262.403 141.262C262.206 140.485 261.998 139.675 261.77 138.829C261.472 137.711 261.135 136.518 260.779 135.299C261.722 134.727 262.635 134.092 263.513 133.397C264.711 134.612 267.607 135.853 267.983 136.012C267.704 137.13 267.423 138.194 267.142 139.203C266.997 139.739 266.851 140.245 266.708 140.745L268.092 140.58C268.175 140.265 268.257 139.955 268.335 139.625C268.621 138.507 268.909 137.295 269.195 136.051C269.6 136.099 272.904 136.467 274.376 135.897C275.711 135.378 277.284 134.285 277.769 132.656C278.254 131.027 277.527 129.239 276.038 128.856C273.978 128.322 271.171 131.295 270.221 133.17C270.162 133.279 269.668 134.567 269.365 135.372C269.479 134.864 269.595 134.369 269.707 133.844C269.937 132.807 270.136 131.765 270.356 130.644C270.446 130.086 270.538 129.546 270.628 128.99C270.718 128.434 270.776 127.845 270.853 127.266C271.006 125.922 271.096 124.553 271.176 123.17C271.964 123.396 274.773 124.159 276.169 123.88C277.566 123.6 279.258 122.796 279.939 121.267C280.62 119.739 280.147 117.847 278.727 117.207C276.758 116.322 273.593 118.769 272.4 120.454C272.325 120.56 271.588 121.879 271.188 122.614C271.224 121.776 271.265 120.951 271.28 120.099C271.324 117.666 271.299 115.201 271.28 112.742C271.28 111.988 271.28 111.236 271.28 110.485C271.561 110.571 274.882 111.56 276.446 111.245C277.835 110.965 279.534 110.163 280.215 108.632C280.896 107.101 280.424 105.215 279.003 104.575C278.077 104.159 276.887 104.48 275.762 105.111" stroke="black" stroke-width="1.10658" stroke-linecap="round" stroke-linejoin="round"/>
<path d="M246.81 123.415C246.886 123.816 247.03 124.196 247.233 124.532C247.421 124.844 247.65 125.12 247.912 125.351" stroke="black" stroke-width="1.10658" stroke-linecap="round" stroke-linejoin="round"/>
<path d="M240.391 104.101C242.071 103.895 244.628 102.704 244.856 102.59C245.591 104.697 246.448 106.745 247.421 108.72C247.983 109.877 248.58 111.02 249.19 112.157C248.844 111.685 248.533 111.266 248.483 111.213C247.108 109.723 243.69 107.779 241.84 108.955C240.507 109.793 240.272 111.777 241.113 113.163C241.954 114.549 243.741 115.119 245.147 115.18C246.553 115.242 249.321 114.038 250.046 113.705C250.289 114.138 250.516 114.574 250.756 115.007C251.908 117.08 253.064 119.145 254.15 121.21C254.531 121.937 254.877 122.669 255.239 123.401C254.931 122.984 254.669 122.635 254.623 122.585C253.248 121.096 249.83 119.151 247.981 120.327C247.561 120.593 247.222 121.002 247.011 121.498" stroke="black" stroke-width="1.10658" stroke-linecap="round" stroke-linejoin="round"/>
<path d="M250.054 86.7644C250.106 86.506 250.132 86.2418 250.134 85.9765C250.134 84.3 248.965 82.8275 247.45 83.0035C245.346 83.2522 243.501 87.097 243.109 89.2233C243.087 89.3379 242.98 90.5421 242.917 91.4195C242.864 90.911 242.801 90.3885 242.759 89.8995C242.597 88.0665 242.546 86.3789 242.517 84.87C242.502 84.0178 242.505 83.2494 242.517 82.5285C243.082 81.9697 245.336 79.7036 245.957 78.2004C246.577 76.6971 246.98 74.6713 246.291 73.1457C245.603 71.6201 243.993 70.9691 242.721 71.9331C240.953 73.2687 240.852 77.6611 241.353 79.7567C241.397 79.9383 242.357 82.6822 242.386 82.6542L242.42 82.6207C242.398 83.3137 242.384 84.0597 242.381 84.87C242.381 86.3705 242.406 88.0665 242.534 89.8995C242.652 91.888 242.872 93.8669 243.191 95.8259C243.54 98.0221 244.058 100.178 244.738 102.269C244.738 102.294 244.757 102.32 244.764 102.342C244.381 101.783 243.259 100.26 243.162 100.154C241.787 98.6648 238.369 96.72 236.52 97.8992C235.187 98.7374 234.951 100.718 235.793 102.104C236.43 103.163 237.591 103.731 238.723 103.976" stroke="black" stroke-width="1.10658" stroke-linecap="round" stroke-linejoin="round"/>
<path d="M253.785 110.94C254.209 110.686 254.604 110.374 254.961 110.009C255.987 108.892 257.022 107.143 256.857 105.433C256.692 103.723 255.402 102.451 253.907 102.82C251.839 103.331 250.37 107.386 250.183 109.548C250.169 109.713 250.195 111.971 250.224 112.546C249.437 111.163 248.661 109.777 247.943 108.378C246.967 106.489 246.098 104.529 245.342 102.51C245.468 102.46 248.862 101.132 250.043 99.847C251.066 98.7294 252.101 96.9802 251.936 95.2702C251.771 93.5602 250.481 92.286 248.986 92.6549C246.918 93.1662 245.451 97.2205 245.262 99.386C245.248 99.5564 245.277 101.987 245.308 102.426C245.265 102.311 245.209 102.194 245.168 102.077C244.458 100.03 243.908 97.9135 243.524 95.7536C243.299 94.5661 243.141 93.4149 243.008 92.2888C243.662 92.1184 246.644 91.2913 247.815 90.2686C248.383 89.7795 248.887 89.1968 249.308 88.5391" stroke="black" stroke-width="1.10658" stroke-linecap="round" stroke-linejoin="round"/>
<path d="M274.834 88.4413C274.871 88.4609 275.251 85.5354 275.259 85.3482C275.324 83.1743 274.342 78.9216 272.35 78.1001C270.919 77.505 269.477 78.6003 269.121 80.2321C268.764 81.8639 269.579 83.7974 270.464 85.0604C271.506 86.5441 274.832 88.4413 274.834 88.4413Z" stroke="black" stroke-width="1.10658" stroke-linecap="round" stroke-linejoin="round"/>
</g>
<g opacity="0.3">
<path d="M330.427 52.6199C331.743 53.2319 333.062 53.6566 333.064 53.6566C333.066 53.6566 333.008 50.7199 332.996 50.5243C332.713 48.3756 331.057 44.4107 328.984 44.0195C327.481 43.7401 326.238 45.1204 326.15 46.8137C326.063 48.5069 327.171 50.217 328.242 51.2843" stroke="black" stroke-width="1.10658" stroke-linecap="round" stroke-linejoin="round"/>
<path d="M361.514 75.8441C361.767 75.9763 362.029 76.0819 362.297 76.1598C363.672 76.5203 365.509 76.5454 366.661 75.4389C367.812 74.3325 368.004 72.3821 366.903 71.1583C365.388 69.4594 361.645 70.2977 359.977 71.3176C359.847 71.3958 358.108 72.7733 357.808 73.0471C357.868 72.941 357.922 72.8236 357.982 72.7174C359.069 70.9032 360.292 69.2033 361.638 67.6377C362.365 66.7603 363.114 65.9612 363.854 65.2207C364.338 65.7544 366.588 68.1546 367.975 68.7134C369.305 69.2499 371.126 69.5041 372.372 68.5513C372.829 68.2122 373.181 67.7164 373.38 67.1337C373.579 66.5511 373.614 65.9113 373.48 65.3045" stroke="black" stroke-width="1.10658" stroke-linecap="round" stroke-linejoin="round"/>
<path d="M341.775 41.0571C342.374 40.1155 342.805 39.0006 342.728 37.883C342.609 36.2065 341.344 34.8513 339.845 35.167C337.766 35.6085 336.192 39.6098 335.947 41.7668C335.928 41.9513 335.887 44.9103 335.923 44.8991L335.967 44.8823C335.724 45.5138 335.448 46.19 335.174 46.9388C334.672 48.3359 334.12 49.895 333.615 51.6526C333.054 53.5381 332.59 55.4601 332.224 57.4085C331.805 59.5878 331.555 61.8058 331.477 64.0363C331.476 64.0633 331.476 64.0903 331.477 64.1173C331.313 63.4271 330.791 61.5243 330.75 61.3818C329.984 59.3952 327.492 56.0729 325.39 56.33C323.875 56.5144 322.993 58.2272 323.294 59.8758C323.594 61.5243 325.058 62.8488 326.333 63.5417C327.771 64.3213 331.218 64.3799 331.492 64.3799C331.458 66.6509 331.554 68.9219 331.78 71.1781C331.909 72.4942 332.074 73.813 332.265 75.1347C332.105 74.5451 331.957 74.017 331.931 73.9499C331.165 71.9605 328.67 68.641 326.569 68.8953C325.056 69.0825 324.174 70.7953 324.474 72.4411C324.775 74.0868 326.239 75.4169 327.514 76.107C328.789 76.7972 331.744 76.9229 332.522 76.9453C332.597 77.451 332.665 77.9568 332.74 78.4625C333.102 80.8906 333.468 83.3104 333.771 85.6966C333.877 86.5348 333.955 87.3731 334.035 88.2113C333.892 87.686 333.768 87.2473 333.742 87.1831C332.978 85.1936 330.483 81.8742 328.382 82.1284C326.869 82.3156 325.987 84.0285 326.287 85.6742C326.588 87.32 328.052 88.65 329.327 89.3401C330.561 90.0107 333.271 90.1449 334.195 90.1784C334.255 91.0362 334.316 91.8912 334.34 92.7239C334.34 93.2827 334.386 93.8415 334.364 94.4004C334.343 94.9592 334.34 95.518 334.331 96.0769C334.275 97.1442 334.221 98.2479 334.146 99.2873C334.095 100.014 334.037 100.701 333.981 101.397C333.885 100.559 333.664 98.9213 333.632 98.7872C333.148 96.6888 331.109 92.967 328.998 92.8552C327.47 92.7714 326.375 94.3082 326.447 95.9846C326.52 97.6611 327.8 99.2315 328.968 100.137C330.258 101.137 333.521 101.783 333.931 101.861C333.831 103.009 333.727 104.124 333.615 105.177C333.533 105.954 333.448 106.703 333.361 107.413L334.621 107.854C334.704 107.053 334.785 106.215 334.864 105.339C334.968 104.174 335.058 102.925 335.14 101.643C336.199 101.537 337.251 101.361 338.292 101.115C338.987 102.769 341.239 105.211 341.53 105.524C340.9 106.421 340.279 107.284 339.681 108.089C339.365 108.516 339.062 108.927 338.762 109.316L340.093 109.782L340.643 109.014C341.288 108.108 341.959 107.122 342.643 106.105C342.997 106.331 345.918 108.15 347.467 108.282C348.873 108.402 350.693 108.103 351.678 106.812C352.662 105.521 352.604 103.554 351.362 102.537C349.644 101.12 346.056 102.604 344.541 103.9C344.451 103.979 343.571 104.934 343.011 105.549C343.288 105.13 343.562 104.728 343.84 104.294C344.4 103.442 344.938 102.57 345.518 101.634L346.325 100.237C346.604 99.7735 346.846 99.2454 347.113 98.7481C347.707 97.5773 348.257 96.3591 348.79 95.1157C349.44 95.6745 351.772 97.6304 353.154 98.0048C354.536 98.3792 356.366 98.3904 357.517 97.2839C358.669 96.1774 358.86 94.2271 357.76 93.0033C356.245 91.3044 352.504 92.1427 350.836 93.1625C350.732 93.2268 349.607 94.1126 348.996 94.6127C349.312 93.8639 349.629 93.1178 349.927 92.3467C350.788 90.1113 351.598 87.8425 352.412 85.5708C352.654 84.8751 352.919 84.1737 353.173 83.492C353.416 83.6959 356.131 86.0961 357.677 86.5041C359.049 86.8673 360.889 86.8897 362.041 85.7832C363.192 84.6767 363.384 82.7292 362.283 81.5053C360.768 79.8065 357.028 80.6447 355.36 81.6618C355.234 81.74 353.617 83.017 353.219 83.3662C353.779 81.8406 354.349 80.329 354.965 78.8649C355.786 76.8823 356.718 74.9634 357.755 73.1201C358.604 73.8663 359.489 74.5557 360.407 75.1849" stroke="black" stroke-width="1.10658" stroke-linecap="round" stroke-linejoin="round"/>
<path d="M339.72 53.7908C340.678 53.2739 341.565 52.4915 341.96 51.4102C342.528 49.8594 341.943 47.9845 340.489 47.4704C338.467 46.7551 335.471 49.471 334.392 51.2565C334.332 51.3543 333.83 52.4161 333.474 53.1956C333.597 52.7039 333.716 52.1925 333.842 51.7231C334.31 49.9628 334.833 48.3841 335.296 46.9898C335.57 46.1991 335.832 45.4894 336.084 44.8299C336.792 44.5701 339.631 43.4887 340.709 42.3823C340.816 42.2733 340.92 42.1587 341.025 42.0386" stroke="black" stroke-width="1.10658" stroke-linecap="round" stroke-linejoin="round"/>
<path d="M372.815 64.0713C371.319 62.4843 367.8 62.8475 366.129 63.6103C366.035 63.655 365.106 64.2222 364.433 64.6441C364.769 64.3116 365.114 63.9624 365.443 63.6522C366.677 62.4815 367.867 61.4951 368.929 60.6317C369.538 60.1483 370.095 59.7236 370.626 59.3324C371.339 59.5672 374.226 60.4697 375.656 60.2322C377.086 59.9947 378.771 59.257 379.494 57.751C380.216 56.2449 379.789 54.3421 378.388 53.6547C376.449 52.6991 373.218 55.0518 371.981 56.6808C371.875 56.8233 370.423 59.2654 370.461 59.2766H370.505C369.991 59.6426 369.446 60.0394 368.859 60.4892C367.778 61.3275 366.563 62.2831 365.303 63.4287C363.933 64.644 362.626 65.9502 361.388 67.3405C359.995 68.8924 358.725 70.584 357.592 72.3951L357.555 72.4622C357.747 71.7832 358.224 69.8636 358.246 69.7127C358.559 67.5668 358.069 63.2107 356.193 62.0875C354.843 61.28 353.284 62.149 352.748 63.7137C352.213 65.2784 352.797 67.3153 353.529 68.704C354.355 70.2688 357.206 72.5041 357.432 72.6829C356.319 74.5594 355.316 76.5197 354.431 78.5506C353.907 79.7326 353.413 80.9369 352.93 82.1551C353.08 81.56 353.209 81.0374 353.219 80.9536C353.531 78.8077 353.044 74.4516 351.168 73.3284C349.815 72.5209 348.259 73.3898 347.723 74.9546C347.187 76.5193 347.772 78.5562 348.504 79.9449C349.236 81.3336 351.655 83.3147 352.283 83.826C352.101 84.2954 351.917 84.7593 351.737 85.2231C350.877 87.478 350.026 89.7301 349.134 91.9123C348.821 92.6807 348.487 93.4239 348.164 94.17C348.295 93.6419 348.407 93.1976 348.407 93.1278C348.719 90.9819 348.23 86.6258 346.353 85.5053C345.001 84.6978 343.445 85.564 342.909 87.1287C342.373 88.6934 342.957 90.7304 343.689 92.1191C344.397 93.4631 346.598 95.2988 347.355 95.9079C346.993 96.6596 346.627 97.414 346.257 98.1237C345.99 98.6015 345.76 99.0821 345.469 99.5459L344.625 100.943C344.068 101.798 343.498 102.687 342.928 103.505C342.54 104.064 342.16 104.623 341.782 105.159C342.102 104.397 342.703 102.893 342.739 102.759C343.202 100.921 343.247 98.9764 342.87 97.1122C342.929 96.9103 342.972 96.7027 342.999 96.4919C343.197 94.8154 342.213 93.1864 340.691 93.125C338.579 93.0383 336.296 96.559 335.653 98.6043C335.615 98.7245 335.331 100.085 335.169 100.949C335.198 100.426 335.234 99.9176 335.261 99.3755C335.319 98.3081 335.348 97.2408 335.387 96.0924C335.387 95.5335 335.387 94.9747 335.387 94.4159C335.387 93.857 335.348 93.2591 335.331 92.6751C335.266 91.3227 335.142 89.9536 334.992 88.5789C335.804 88.6376 338.688 88.7884 340.014 88.2156C341.34 87.6428 342.892 86.4861 343.316 84.8375C343.74 83.1889 342.974 81.4342 341.479 81.1073C339.401 80.6546 336.681 83.7338 335.779 85.6422C335.721 85.7624 335.207 87.2153 334.938 88.0228C334.844 87.1846 334.752 86.3715 334.63 85.5388C334.284 83.1387 333.867 80.7217 333.46 78.3076C333.336 77.5671 333.217 76.8294 333.098 76.0918C333.389 76.1141 336.812 76.3712 338.298 75.7397C339.617 75.1809 341.161 74.0185 341.585 72.37C342.009 70.7214 341.243 68.9667 339.748 68.6398C337.67 68.1871 334.95 71.2663 334.049 73.1747C333.981 73.32 333.241 75.41 333.079 75.9688C332.817 74.3399 332.57 72.7165 332.381 71.1042C332.118 68.9282 331.977 66.7349 331.959 64.538C332.095 64.538 335.668 64.8453 337.188 64.1887C338.509 63.6299 340.051 62.4675 340.475 60.8189C340.899 59.1704 340.133 57.4157 338.638 57.0887C336.56 56.6361 333.843 59.7125 332.938 61.6237C332.868 61.7745 332.075 64.0266 331.969 64.4485C331.969 64.32 331.957 64.1887 331.957 64.0602C331.994 61.8566 332.2 59.6612 332.572 57.4995C332.766 56.3036 333.009 55.1719 333.266 54.0766C333.925 54.2108 336.95 54.7836 338.376 54.3561C338.553 54.303 338.734 54.2443 338.916 54.1716" stroke="black" stroke-width="1.10658" stroke-linecap="round" stroke-linejoin="round"/>
<path d="M363.884 64.761C363.91 64.7945 365.249 62.2686 365.316 62.0982C366.109 60.1255 366.638 55.7722 365.074 54.1208C363.957 52.9305 362.257 53.2826 361.38 54.6406C360.502 55.9985 360.602 58.1277 360.989 59.6896C361.455 61.5254 363.884 64.7582 363.884 64.761Z" stroke="black" stroke-width="1.10658" stroke-linecap="round" stroke-linejoin="round"/>
</g>
<path d="M288.846 81.0347H366.016L356.028 144.853H278.859L288.846 81.0347Z" fill="white" stroke="#263238" stroke-width="1.10658" stroke-linecap="round" stroke-linejoin="round"/>
<path d="M364.474 81.0347L359.672 111.726L355.238 140.061L354.487 144.856H277.32L284.777 97.2072L287.307 81.0347H364.474Z" fill="#263238" stroke="#263238" stroke-width="1.10658" stroke-linecap="round" stroke-linejoin="round"/>
<path d="M289.412 83.0347H361.74L352.378 142.852H280.05L289.412 83.0347Z" fill="#0B71BB" stroke="#263238" stroke-width="1.10658" stroke-linecap="round" stroke-linejoin="round"/>
<path d="M280.781 138.178L280.049 142.855H352.378L353.11 138.178H280.781Z" fill="#BFBFBF" stroke="#263238" stroke-width="1.10658" stroke-linecap="round" stroke-linejoin="round"/>
<path d="M359.595 83.0356L350.234 142.853H352.376L361.738 83.0356H359.595Z" fill="#BFBFBF" stroke="#263238" stroke-width="1.10658" stroke-linecap="round" stroke-linejoin="round"/>
<path d="M358.34 104.776L360.16 93.1387H358.02L356.197 104.776H358.34Z" fill="#A1A1A1" stroke="#263238" stroke-width="1.10658" stroke-linecap="round" stroke-linejoin="round"/>
<path d="M354.852 140.63H260.127V144.855H354.852V140.63Z" fill="white" stroke="#263238" stroke-width="1.10658" stroke-linecap="round" stroke-linejoin="round"/>
<path d="M273.63 140.629H227.136V144.854H273.63V140.629Z" fill="#263238" stroke="#263238" stroke-width="1.10658" stroke-linecap="round" stroke-linejoin="round"/>
<path d="M288.748 87.2614H361.076L361.738 83.0366H289.41L288.748 87.2614Z" fill="#BFBFBF" stroke="#263238" stroke-width="1.10658" stroke-linecap="round" stroke-linejoin="round"/>
<path d="M293.301 85.945H327.753L328.068 83.9312H293.616L293.301 85.945Z" fill="white" stroke="#263238" stroke-width="1.10658" stroke-linecap="round" stroke-linejoin="round"/>
<path opacity="0.2" d="M291.61 106.36H318.326L314.87 128.456H288.153L291.61 106.36Z" fill="black"/>
<path d="M289.96 104.318H316.678L313.222 126.412H286.503L289.96 104.318Z" fill="white" stroke="#263238" stroke-width="1.10658" stroke-linecap="round" stroke-linejoin="round"/>
<path d="M316.276 106.893L316.681 104.319H289.962L289.56 106.893H316.276Z" fill="#263238" stroke="#263238" stroke-width="1.10658" stroke-linecap="round" stroke-linejoin="round"/>
<path d="M315.197 105.661C315.198 105.812 315.159 105.96 315.087 106.086C315.014 106.211 314.911 106.31 314.79 106.368C314.669 106.426 314.536 106.441 314.407 106.412C314.278 106.382 314.16 106.31 314.067 106.203C313.975 106.096 313.912 105.96 313.886 105.812C313.861 105.664 313.874 105.51 313.924 105.371C313.975 105.232 314.06 105.113 314.169 105.029C314.278 104.946 314.407 104.901 314.538 104.902C314.713 104.902 314.88 104.982 315.004 105.124C315.128 105.267 315.197 105.46 315.197 105.661Z" fill="white" stroke="#263238" stroke-width="1.10658" stroke-linecap="round" stroke-linejoin="round"/>
<path d="M300.322 109.345C301.621 109.563 302.031 110.761 301.737 112.466L301.679 112.809H300.53L300.605 112.374C300.797 111.256 300.523 110.56 299.636 110.56C298.748 110.56 298.259 111.25 298.067 112.374C297.582 115.221 301.274 115.24 300.663 118.8C300.372 120.505 299.534 121.72 298.159 121.938L297.994 122.899H296.988L297.153 121.938C295.822 121.72 295.413 120.521 295.699 118.8L295.832 118.021H296.981L296.833 118.89C296.637 120.032 296.935 120.686 297.817 120.686C298.7 120.686 299.219 120.032 299.413 118.89C299.897 116.062 296.222 116.026 296.833 112.463C297.129 110.722 297.939 109.579 299.301 109.342L299.476 108.328H300.482L300.322 109.345Z" fill="#263238"/>
<path d="M302.819 120.228L302.518 121.988H301.338L301.638 120.228H302.819ZM302.472 115.262L303.493 109.297H304.719L303.699 115.262L302.872 119.174H301.97L302.472 115.262Z" fill="#263238"/>
<path d="M305.306 120.228L305.006 121.988H303.825L304.126 120.228H305.306ZM304.962 115.262L305.98 109.297H307.209L306.189 115.262L305.367 119.174H304.453L304.962 115.262Z" fill="#263238"/>
<path opacity="0.2" d="M359.669 111.725L355.235 140.06H327.564L332 111.725H359.669Z" fill="black"/>
<path d="M329.968 109.827H364.23L359.796 138.163H325.534L329.968 109.827Z" fill="white" stroke="#263238" stroke-width="1.10658" stroke-linecap="round" stroke-linejoin="round"/>
<path d="M363.712 113.129L364.228 109.827H329.966L329.45 113.129H363.712Z" fill="#263238" stroke="#263238" stroke-width="1.10658" stroke-linecap="round" stroke-linejoin="round"/>
<path d="M362.33 111.554C362.33 111.747 362.28 111.936 362.187 112.097C362.093 112.258 361.961 112.383 361.805 112.457C361.65 112.531 361.479 112.55 361.315 112.512C361.15 112.474 360.999 112.381 360.88 112.244C360.762 112.107 360.681 111.933 360.649 111.743C360.616 111.553 360.634 111.356 360.698 111.178C360.763 110.999 360.872 110.847 361.012 110.74C361.151 110.632 361.316 110.576 361.484 110.576C361.595 110.576 361.705 110.601 361.808 110.651C361.911 110.7 362.004 110.772 362.083 110.863C362.161 110.953 362.224 111.061 362.266 111.18C362.308 111.298 362.33 111.426 362.33 111.554Z" fill="white" stroke="#263238" stroke-width="1.10658" stroke-linecap="round" stroke-linejoin="round"/>
<path d="M333.494 123.771C333.763 123.343 334.118 122.997 334.527 122.759C334.937 122.522 335.39 122.401 335.848 122.407C337.683 122.407 338.233 123.958 337.831 126.319L337.281 129.541C336.851 132.055 335.53 133.698 333.349 133.698C331.167 133.698 330.44 132.055 330.859 129.541L331.048 128.423H332.537L332.328 129.647C332.086 131.128 332.452 132.019 333.593 132.019C334.735 132.019 335.419 131.128 335.671 129.647L336.216 126.439C336.471 124.958 336.093 124.064 334.951 124.064C334.076 124.064 333.387 124.623 333.038 125.827L332.975 126.204H331.487L333.438 117.062H339.057L338.776 118.708H334.583L333.494 123.771Z" fill="#263238"/>
<path d="M340.137 121.045C340.566 118.53 341.926 116.909 344.105 116.909C346.284 116.909 347.111 118.533 346.682 121.045L345.227 129.53C344.798 132.045 343.436 133.688 341.235 133.688C339.034 133.688 338.253 132.045 338.685 129.53L340.137 121.045ZM340.236 129.648C339.994 131.129 340.382 132.02 341.523 132.02C342.665 132.02 343.368 131.129 343.62 129.648L345.116 120.952C345.373 119.446 344.995 118.555 343.831 118.555C342.668 118.555 341.986 119.446 341.729 120.952L340.236 129.648Z" fill="#263238"/>
<path d="M349.844 118.498L349.481 120.691C349.367 121.367 349.013 121.809 348.429 121.809C347.844 121.809 347.643 121.362 347.76 120.691L348.135 118.498C348.249 117.833 348.601 117.38 349.187 117.38C349.774 117.38 349.966 117.833 349.844 118.498ZM352.026 117.416L348.46 124.365H348.055L351.614 117.416H352.026ZM348.564 118.467L348.179 120.73C348.114 121.107 348.179 121.356 348.501 121.356C348.824 121.356 348.986 121.107 349.04 120.73L349.427 118.467C349.49 118.09 349.406 117.833 349.105 117.833C348.804 117.833 348.623 118.09 348.557 118.467H348.564ZM352.37 121.088L351.997 123.273C351.883 123.946 351.539 124.39 350.945 124.39C350.351 124.39 350.159 123.943 350.276 123.273L350.649 121.088C350.763 120.423 351.115 119.97 351.699 119.97C352.283 119.97 352.477 120.423 352.363 121.088H352.37ZM351.083 121.06L350.693 123.312C350.627 123.689 350.712 123.946 351.013 123.946C351.313 123.946 351.498 123.689 351.553 123.312L351.939 121.06C352.002 120.683 351.917 120.434 351.614 120.434C351.311 120.434 351.141 120.683 351.076 121.06H351.083Z" fill="#263238"/>
<path d="M346.269 126.949C346.511 125.594 347.239 124.714 348.409 124.714C349.58 124.714 350.029 125.586 349.796 126.949L349.013 131.534C348.771 132.878 348.043 133.77 346.863 133.77C345.682 133.77 345.256 132.884 345.486 131.534L346.269 126.949ZM346.322 131.587C346.184 132.398 346.4 132.864 347.016 132.864C347.631 132.864 348.007 132.398 348.148 131.587L348.948 126.899C349.086 126.103 348.882 125.619 348.254 125.619C347.626 125.619 347.26 126.103 347.125 126.899L346.322 131.587Z" fill="#263238"/>
<path d="M352.898 128.935L352.746 129.835H350.976L350.319 133.674H349.461L350.978 124.805H354.033L353.88 125.705H351.681L351.129 128.935H352.898Z" fill="#263238"/>
<path d="M356.635 128.935L356.482 129.835H354.712L354.055 133.674H353.2L354.715 124.806H357.769L357.616 125.705H355.418L354.867 128.935H356.635Z" fill="#263238"/>
<path opacity="0.2" d="M306.278 81.0366L303.747 97.2092H284.773L287.304 81.0366H306.278Z" fill="black"/>
<path d="M270.459 64.5483H306.942L302.223 94.7224H265.737L270.459 64.5483Z" fill="white" stroke="#263238" stroke-width="1.10658" stroke-linecap="round" stroke-linejoin="round"/>
<path d="M291.367 64.5483L289.256 67.499L289.106 64.5483H288.352L287.111 67.119L286.514 64.5483H285.685L284.905 67.2363L283.722 64.5483H283.108L282.728 67.8482L280.415 64.5679L280.658 68.924L277.795 66.2807L278.779 70.4272L275.472 68.5244L277.162 72.3021L273.54 71.2096L275.87 74.4732L272.071 74.2329L274.949 76.8566L271.121 77.4797L274.437 79.363L270.726 80.8243L274.357 81.8945L270.903 84.1382L274.706 84.3533L271.645 87.2928L275.472 86.6473L272.922 90.1707L276.629 88.6871L274.687 92.6575L278.132 90.3943L276.871 94.661L279.918 91.7019L279.555 94.7224H280.376L281.923 92.5625L282.035 94.7224H283.208L284.071 92.9398L284.483 94.7224H285.724L286.274 92.8224L287.113 94.7224H288.163L288.454 92.2133L290.223 94.7224H290.723L290.521 91.1347L293.387 93.778L292.4 89.6315L295.709 91.5371L294.017 87.7566L297.641 88.8519L295.311 85.5883L299.11 85.8286L296.23 83.2021L300.06 82.5818L296.742 80.6986L300.453 79.2372L296.824 78.1671L300.276 75.9234L296.475 75.7054L299.534 72.766L295.707 73.4114L298.257 69.888L294.55 71.3745L296.492 67.4012L293.05 69.6672L294.31 65.3978L291.263 68.3568L291.721 64.5483H291.367Z" fill="white" stroke="#263238" stroke-width="1.10658" stroke-linecap="round" stroke-linejoin="round"/>
<path d="M306.391 68.0662L306.941 64.5483H270.458L269.908 68.0662H306.391Z" fill="#263238" stroke="#263238" stroke-width="1.10658" stroke-linecap="round" stroke-linejoin="round"/>
<path d="M304.923 66.3877C304.923 66.594 304.871 66.7958 304.772 66.9675C304.672 67.1393 304.531 67.2732 304.366 67.3524C304.201 67.4316 304.019 67.4525 303.843 67.4124C303.667 67.3723 303.506 67.273 303.379 67.1271C303.253 66.9813 303.167 66.7954 303.132 66.593C303.097 66.3907 303.115 66.181 303.184 65.9905C303.253 65.8 303.369 65.6373 303.518 65.5231C303.667 65.4088 303.842 65.3481 304.021 65.3486C304.26 65.3486 304.49 65.4581 304.659 65.653C304.828 65.8478 304.923 66.1121 304.923 66.3877Z" fill="white" stroke="#263238" stroke-width="1.10658" stroke-linecap="round" stroke-linejoin="round"/>
<path d="M280.494 75.4336C281.769 75.4336 282.152 76.1349 281.914 77.5236L281.839 77.9679C281.667 78.9654 281.316 79.5857 280.559 79.8428C281.311 80.0998 281.49 80.8263 281.313 81.8657L281.175 82.6593C280.933 84.0759 280.205 84.8723 278.928 84.8723H277.044L278.656 75.4336H280.494ZM279.09 83.9139C279.757 83.9139 280.13 83.5087 280.281 82.6341L280.424 81.7959C280.603 80.7453 280.3 80.3988 279.517 80.3988H278.722L278.121 83.9167L279.09 83.9139ZM279.587 79.4432C280.314 79.4432 280.731 79.1638 280.901 78.1886L280.996 77.6298C281.139 76.7916 280.962 76.3892 280.307 76.3892H279.405L278.884 79.4348L279.587 79.4432Z" fill="#263238"/>
<path d="M282.875 82.6443C282.729 83.4826 282.935 84.0079 283.602 84.0079C284.269 84.0079 284.637 83.4938 284.783 82.6443L286.014 75.4326H286.87L285.643 82.5912C285.401 84.0219 284.674 84.9775 283.401 84.9775C282.128 84.9775 281.74 84.0219 281.983 82.5912L283.207 75.4326H284.109L282.875 82.6443Z" fill="#263238"/>
<path d="M288.186 81.488L287.49 75.4331H288.438L288.923 80.0714L291.003 75.4331H291.868L289.09 81.488L288.511 84.8718H287.611L288.186 81.488Z" fill="#263238"/>
<path d="M292.016 83.5651L291.793 84.8727H290.916L291.139 83.5651H292.016ZM291.759 79.8712L292.516 75.4341H293.427L292.668 79.8712L292.055 82.7827H291.376L291.759 79.8712Z" fill="#263238"/>
<path opacity="0.2" d="M352.014 81.0371L349.464 97.3298H322.745L325.295 81.0371H352.014Z" fill="black"/>
<path d="M324.687 73.1904H351.406L347.947 95.2838H321.23L324.687 73.1904Z" fill="white" stroke="#263238" stroke-width="1.10658" stroke-linecap="round" stroke-linejoin="round"/>
<path d="M351.002 75.7634L351.407 73.1899H324.688L324.286 75.7634H351.002Z" fill="#263238" stroke="#263238" stroke-width="1.10658" stroke-linecap="round" stroke-linejoin="round"/>
<path d="M349.267 75.2958C349.632 75.2958 349.929 74.9546 349.929 74.5336C349.929 74.1127 349.632 73.7715 349.267 73.7715C348.901 73.7715 348.605 74.1127 348.605 74.5336C348.605 74.9546 348.901 75.2958 349.267 75.2958Z" fill="white" stroke="#263238" stroke-width="1.10658" stroke-linecap="round" stroke-linejoin="round"/>
<path d="M332.373 81.4013L331.859 84.3994H331.215L332.354 77.7354H332.999L332.487 80.7335H333.908L334.419 77.7354H335.064L333.925 84.3994H333.28L333.794 81.4013H332.373Z" fill="#263238"/>
<path d="M335.402 79.3454C335.574 78.3256 336.129 77.6689 337.009 77.6689C337.889 77.6689 338.221 78.3256 338.051 79.3454L337.462 82.7906C337.29 83.7993 336.735 84.4671 335.848 84.4671C334.961 84.4671 334.636 83.7993 334.81 82.7906L335.402 79.3454ZM335.441 82.8297C335.336 83.4389 335.499 83.7909 335.962 83.7909C336.425 83.7909 336.709 83.4389 336.813 82.8297L337.414 79.3063C337.518 78.7056 337.365 78.3451 336.893 78.3451C336.42 78.3451 336.146 78.7056 336.044 79.3063L335.441 82.8297Z" fill="#263238"/>
<path d="M338.631 84.3989L339.654 78.411H338.589L338.706 77.7349H341.481L341.365 78.411H340.301L339.276 84.3989H338.631Z" fill="#263238"/>
<path d="M330.633 86.738L330.604 86.9196H329.993L330.03 86.6989C330.132 86.1009 329.993 85.7489 329.533 85.7489C329.072 85.7489 328.806 86.1009 328.709 86.6905C328.454 88.1854 330.371 88.3279 330.049 90.2028C329.877 91.2115 329.344 91.8793 328.461 91.8793C327.579 91.8793 327.276 91.2198 327.448 90.2028L327.513 89.8228H328.117L328.044 90.2419C327.943 90.8426 328.098 91.1947 328.558 91.1947C329.019 91.1947 329.298 90.8426 329.399 90.2419C329.654 88.7554 327.744 88.6129 328.066 86.738C328.241 85.7098 328.764 85.0615 329.63 85.0615C330.495 85.0615 330.818 85.7293 330.633 86.738Z" fill="#263238"/>
<path d="M331.217 90.4597L330.764 91.7925H330.17L332.417 85.1284H333.351L333.317 91.7925H332.674V90.4485L331.217 90.4597ZM331.409 89.8226H332.699V85.975L331.409 89.8226Z" fill="#263238"/>
<path d="M333.823 91.7925L334.962 85.1284H335.607L334.584 91.1163H336.235L336.119 91.7925H333.823Z" fill="#263238"/>
<path d="M339.298 88.0892L339.184 88.7543H337.771L337.359 91.1265H339.092L338.983 91.7915H336.602L337.742 85.1274H340.122L340.006 85.8008H338.273L337.882 88.0781L339.298 88.0892Z" fill="#263238"/>
<path d="M340.366 90.8784L340.208 91.8032H339.587L339.745 90.8784H340.366ZM340.184 88.2714L340.719 85.1392H341.364L340.829 88.2714L340.395 90.3279H339.91L340.184 88.2714Z" fill="#263238"/>
<path d="M341.67 90.8788L341.512 91.8037H340.894L341.051 90.8788H341.67ZM341.483 88.2719L342.019 85.1396H342.664L342.128 88.2719L341.694 90.3284H341.209L341.483 88.2719Z" fill="#263238"/>
<ellipse cx="358.531" cy="-8.85143" rx="55.3292" ry="55.3292" fill="#D7EEFE"/>
<path d="M32.7368 54.536H23.6988V51.5474H32.7368V54.536ZM39.3137 49.5952H41.049C42.6879 49.5952 44.0536 50.0852 45.1462 51.0654C46.2549 52.0294 46.8092 53.3791 46.8092 55.1144C46.8092 56.8497 46.2228 58.2074 45.0498 59.1875C43.909 60.1677 42.487 60.6577 40.7839 60.6577C39.4021 60.6577 38.189 60.3524 37.1446 59.7419C36.1162 59.1152 35.3691 58.2155 34.9031 57.0425L37.7471 55.3795C38.1488 56.7292 39.161 57.404 40.7839 57.404C41.6355 57.404 42.2942 57.2032 42.7602 56.8015C43.2422 56.3837 43.4832 55.8214 43.4832 55.1144C43.4832 54.4235 43.2502 53.8692 42.7843 53.4514C42.3183 53.0337 41.6837 52.8248 40.8803 52.8248H35.7708L36.4456 43.4493H46.0139V46.5584H39.5306L39.3137 49.5952ZM54.8141 60.6577C52.7092 60.6577 51.0543 59.8624 49.8492 58.2717C48.6602 56.6489 48.0657 54.5199 48.0657 51.8848C48.0657 49.2497 48.6602 47.1288 49.8492 45.522C51.0543 43.9153 52.7092 43.1119 54.8141 43.1119C56.9511 43.1119 58.606 43.9153 59.779 45.522C60.968 47.1288 61.5625 49.2497 61.5625 51.8848C61.5625 54.5199 60.968 56.6489 59.779 58.2717C58.606 59.8624 56.9511 60.6577 54.8141 60.6577ZM58.2606 51.8848C58.2606 50.0852 57.9633 48.7115 57.3688 47.7635C56.7904 46.8155 55.9388 46.3415 54.8141 46.3415C53.6894 46.3415 52.8378 46.8155 52.2593 47.7635C51.6809 48.7115 51.3917 50.0852 51.3917 51.8848C51.3917 53.6844 51.6809 55.0582 52.2593 56.0062C52.8378 56.9381 53.6894 57.404 54.8141 57.404C55.9388 57.404 56.7904 56.93 57.3688 55.9821C57.9633 55.0341 58.2606 53.6683 58.2606 51.8848ZM69.9824 49.9326C69.195 50.6878 68.231 51.0654 67.0902 51.0654C65.9333 51.0654 64.9612 50.6797 64.1739 49.9085C63.4027 49.1373 63.017 48.1973 63.017 47.0886C63.017 45.98 63.4027 45.04 64.1739 44.2688C64.9773 43.4975 65.9494 43.1119 67.0902 43.1119C68.247 43.1119 69.2111 43.4975 69.9824 44.2688C70.7536 45.0079 71.1392 45.9478 71.1392 47.0886C71.1392 48.2134 70.7536 49.1614 69.9824 49.9326ZM66.1743 58.6091L64.7282 57.7656L75.7185 45.5461L77.1887 46.3656L66.1743 58.6091ZM65.9815 48.1973C66.2707 48.4865 66.6323 48.6311 67.0661 48.6311C67.4999 48.6311 67.8614 48.4865 68.1506 48.1973C68.4399 47.892 68.5845 47.5225 68.5845 47.0886C68.5845 46.6548 68.4399 46.2933 68.1506 46.0041C67.8614 45.7149 67.4999 45.5702 67.0661 45.5702C66.6323 45.5702 66.2707 45.7149 65.9815 46.0041C65.7084 46.2933 65.5718 46.6548 65.5718 47.0886C65.5718 47.5225 65.7084 47.892 65.9815 48.1973ZM79.2855 56.6328C79.2855 57.7415 78.8999 58.6814 78.1286 59.4527C77.3574 60.2239 76.3933 60.6095 75.2365 60.6095C74.0796 60.6095 73.1155 60.2239 72.3443 59.4527C71.573 58.6814 71.1874 57.7415 71.1874 56.6328C71.1874 55.5241 71.573 54.5842 72.3443 53.8129C73.1155 53.0417 74.0796 52.6561 75.2365 52.6561C76.3933 52.6561 77.3574 53.0417 78.1286 53.8129C78.8999 54.5842 79.2855 55.5241 79.2855 56.6328ZM76.2969 57.7415C76.5861 57.4362 76.7307 57.0666 76.7307 56.6328C76.7307 56.199 76.5861 55.8375 76.2969 55.5482C76.0238 55.2429 75.6703 55.0903 75.2365 55.0903C74.8026 55.0903 74.4411 55.2429 74.1519 55.5482C73.8787 55.8375 73.7422 56.199 73.7422 56.6328C73.7422 57.0666 73.8787 57.4362 74.1519 57.7415C74.4411 58.0307 74.8026 58.1753 75.2365 58.1753C75.6703 58.1753 76.0238 58.0307 76.2969 57.7415Z" fill="black"/>
<path d="M29.7965 80.1699V75.7304H30.8087V85.853H29.7965V81.1243H24.3013V85.853H23.2891V75.7304H24.3013V80.1699H29.7965ZM39.1915 80.0398V78.6226H40.1459V85.853H39.1915V84.4359C38.5263 85.4963 37.5526 86.0266 36.2704 86.0266C35.2388 86.0266 34.3567 85.6602 33.6241 84.9275C32.901 84.1949 32.5395 83.2983 32.5395 82.2378C32.5395 81.1774 32.901 80.2808 33.6241 79.5481C34.3567 78.8154 35.2388 78.4491 36.2704 78.4491C37.5526 78.4491 38.5263 78.9793 39.1915 80.0398ZM34.3182 84.2768C34.8677 84.8263 35.5425 85.1011 36.3427 85.1011C37.1429 85.1011 37.8177 84.8263 38.3672 84.2768C38.9167 83.708 39.1915 83.0283 39.1915 82.2378C39.1915 81.4376 38.9167 80.7628 38.3672 80.2133C37.8177 79.6541 37.1429 79.3746 36.3427 79.3746C35.5425 79.3746 34.8677 79.6541 34.3182 80.2133C33.7687 80.7628 33.4939 81.4376 33.4939 82.2378C33.4939 83.0283 33.7687 83.708 34.3182 84.2768ZM47.7486 82.0932L51.6241 85.853H50.3515L46.7363 82.368V85.853H45.7819V78.6226H46.7363V81.8185L50.178 78.6226H51.4795L47.7486 82.0932ZM55.5084 84.6817L57.8511 78.6226H58.8633L55.7687 86.5182C55.4795 87.2509 55.0746 87.8149 54.554 88.2101C54.043 88.615 53.4742 88.7934 52.8476 88.7452V87.8486C53.7153 87.9547 54.3756 87.4534 54.8287 86.3447L55.0167 85.8964L51.7775 78.6226H52.7898L55.5084 84.6817ZM63.2705 82.1077L66.0903 85.853H64.9479L62.692 82.8741L60.4362 85.853H59.2937L62.1281 82.1077L59.4817 78.6226H60.6241L62.692 81.3557L64.7599 78.6226H65.9024L63.2705 82.1077ZM72.9391 84.942C72.1968 85.665 71.3002 86.0266 70.2494 86.0266C69.1793 86.0266 68.2779 85.665 67.5452 84.942C66.8126 84.2093 66.4462 83.3079 66.4462 82.2378C66.4462 81.1677 66.8126 80.2711 67.5452 79.5481C68.2779 78.8154 69.1793 78.4491 70.2494 78.4491C71.3099 78.4491 72.2065 78.8154 72.9391 79.5481C73.6815 80.2711 74.0526 81.1677 74.0526 82.2378C74.0526 83.2983 73.6815 84.1997 72.9391 84.942ZM68.2249 84.2768C68.7744 84.8263 69.4493 85.1011 70.2494 85.1011C71.0496 85.1011 71.7244 84.8263 72.2739 84.2768C72.8235 83.708 73.0982 83.0283 73.0982 82.2378C73.0982 81.4376 72.8235 80.7628 72.2739 80.2133C71.7244 79.6541 71.0496 79.3746 70.2494 79.3746C69.4493 79.3746 68.7744 79.6541 68.2249 80.2133C67.6754 80.7628 67.4006 81.4376 67.4006 82.2378C67.4006 83.0283 67.6754 83.708 68.2249 84.2768ZM80.7689 81.7751V78.6226H81.7233V85.853H80.7689V82.7006H76.6042V85.853H75.6498V78.6226H76.6042V81.7751H80.7689ZM88.8608 81.7751V78.6226H89.8152V85.853H88.8608V82.7006H84.696V85.853H83.7416V78.6226H84.696V81.7751H88.8608ZM94.6967 84.6817L97.0394 78.6226H98.0516L94.957 86.5182C94.6678 87.2509 94.2629 87.8149 93.7423 88.2101C93.2314 88.615 92.6626 88.7934 92.0359 88.7452V87.8486C92.9036 87.9547 93.564 87.4534 94.0171 86.3447L94.2051 85.8964L90.9658 78.6226H91.9781L94.6967 84.6817ZM105.38 78.4491C106.44 78.4491 107.337 78.8154 108.07 79.5481C108.812 80.2711 109.183 81.1677 109.183 82.2378C109.183 83.2983 108.812 84.1997 108.07 84.942C107.327 85.665 106.431 86.0266 105.38 86.0266C104.416 86.0266 103.577 85.7132 102.864 85.0866C102.16 84.4407 101.76 83.6453 101.663 82.7006H100.16V85.853H99.2051V78.6226H100.16V81.7751H101.663C101.77 80.8207 102.17 80.0301 102.864 79.4035C103.567 78.7672 104.406 78.4491 105.38 78.4491ZM103.355 84.2768C103.905 84.8263 104.58 85.1011 105.38 85.1011C106.18 85.1011 106.855 84.8263 107.404 84.2768C107.954 83.708 108.229 83.0283 108.229 82.2378C108.229 81.4376 107.954 80.7628 107.404 80.2133C106.855 79.6541 106.18 79.3746 105.38 79.3746C104.58 79.3746 103.905 79.6541 103.355 80.2133C102.806 80.7628 102.531 81.4376 102.531 82.2378C102.531 83.0283 102.806 83.708 103.355 84.2768ZM120.373 78.6226H121.472V85.853H120.518V80.0831L117.987 84.19H117.871L115.341 80.0831V85.853H114.386V78.6226H115.485L117.929 82.5849L120.373 78.6226ZM126.835 78.4491C127.915 78.4491 128.778 78.8299 129.424 79.5915C130.089 80.3434 130.422 81.2352 130.422 82.2667C130.422 82.3149 130.412 82.4644 130.393 82.715H124.044C124.141 83.4381 124.449 84.0165 124.97 84.4503C125.49 84.8842 126.141 85.1011 126.922 85.1011C128.021 85.1011 128.797 84.6913 129.25 83.8719L130.089 84.3636C129.771 84.8842 129.332 85.2939 128.773 85.5927C128.224 85.8819 127.602 86.0266 126.908 86.0266C125.77 86.0266 124.844 85.6699 124.131 84.9565C123.418 84.2431 123.061 83.3368 123.061 82.2378C123.061 81.1484 123.413 80.247 124.117 79.5336C124.82 78.8106 125.727 78.4491 126.835 78.4491ZM126.835 79.3746C126.083 79.3746 125.452 79.5963 124.941 80.0398C124.44 80.4832 124.141 81.0665 124.044 81.7895H129.438C129.332 81.0183 129.038 80.4254 128.556 80.0108C128.055 79.5867 127.481 79.3746 126.835 79.3746ZM135.15 86.0266C134.118 86.0266 133.251 85.6843 132.547 84.9998C131.853 84.3057 131.506 83.4091 131.506 82.3101C131.506 81.0761 131.689 80.1314 132.055 79.4758C132.422 78.8106 133.164 78.2081 134.282 77.6682C134.639 77.5043 134.919 77.379 135.121 77.2922C135.459 77.1572 135.724 77.0416 135.916 76.9451C136.755 76.5595 137.179 76.0823 137.189 75.5135L137.941 75.9473C137.893 76.1884 137.816 76.4053 137.71 76.5981C137.584 76.8102 137.459 76.9789 137.334 77.1042C137.218 77.2295 137.035 77.3645 136.784 77.5091C136.62 77.6055 136.423 77.7116 136.191 77.8273L135.468 78.1309L134.789 78.4202C134.123 78.7094 133.627 79.013 133.299 79.3312C132.981 79.6397 132.754 80.0446 132.619 80.5459C132.928 80.1314 133.333 79.818 133.834 79.6059C134.335 79.3842 134.842 79.2733 135.352 79.2733C136.317 79.2733 137.112 79.5915 137.739 80.2278C138.375 80.8544 138.693 81.6594 138.693 82.6427C138.693 83.6164 138.356 84.4262 137.681 85.0721C137.015 85.7084 136.172 86.0266 135.15 86.0266ZM133.27 84.3636C133.771 84.8359 134.398 85.0721 135.15 85.0721C135.902 85.0721 136.519 84.8456 137.001 84.3925C137.493 83.9297 137.739 83.3465 137.739 82.6427C137.739 81.9293 137.507 81.3461 137.044 80.893C136.591 80.4302 135.984 80.1988 135.222 80.1988C134.538 80.1988 133.916 80.4157 133.357 80.8496C132.798 81.2641 132.518 81.8329 132.518 82.556C132.518 83.2886 132.769 83.8912 133.27 84.3636ZM143.485 78.4491C144.565 78.4491 145.428 78.8299 146.074 79.5915C146.739 80.3434 147.071 81.2352 147.071 82.2667C147.071 82.3149 147.062 82.4644 147.042 82.715H140.694C140.79 83.4381 141.099 84.0165 141.62 84.4503C142.14 84.8842 142.791 85.1011 143.572 85.1011C144.671 85.1011 145.447 84.6913 145.9 83.8719L146.739 84.3636C146.421 84.8842 145.982 85.2939 145.423 85.5927C144.873 85.8819 144.251 86.0266 143.557 86.0266C142.42 86.0266 141.494 85.6699 140.781 84.9565C140.067 84.2431 139.711 83.3368 139.711 82.2378C139.711 81.1484 140.063 80.247 140.766 79.5336C141.47 78.8106 142.376 78.4491 143.485 78.4491ZM143.485 79.3746C142.733 79.3746 142.102 79.5963 141.591 80.0398C141.089 80.4832 140.79 81.0665 140.694 81.7895H146.088C145.982 81.0183 145.688 80.4254 145.206 80.0108C144.705 79.5867 144.131 79.3746 143.485 79.3746ZM149.059 78.6226H154.236V85.853H153.282V79.5481H150.013V82.7729C150.013 83.9779 149.782 84.807 149.319 85.2601C148.866 85.7132 148.24 85.9109 147.439 85.853V84.9565C147.999 85.0143 148.408 84.8793 148.669 84.5516C148.929 84.2238 149.059 83.6309 149.059 82.7729V78.6226ZM157.212 81.3702H159.193C159.858 81.3702 160.427 81.5823 160.9 82.0064C161.372 82.421 161.608 82.956 161.608 83.6116C161.608 84.2768 161.372 84.8167 160.9 85.2312C160.446 85.6458 159.878 85.853 159.193 85.853H156.258V78.6226H157.212V81.3702ZM157.212 84.9275H159.193C159.608 84.9275 159.955 84.807 160.234 84.566C160.514 84.3154 160.654 83.9972 160.654 83.6116C160.654 83.226 160.514 82.9127 160.234 82.6716C159.955 82.421 159.608 82.2957 159.193 82.2957H157.212V84.9275Z" fill="black"/>
<rect x="22.1322" y="112.985" width="109.203" height="29.0676" rx="11.0658" fill="#0063A9"/>
<path d="M47.1336 123.146H52.7572V131.019H51.9699V123.888H47.9209V131.019H47.1336V123.146ZM59.1587 130.31C58.5813 130.873 57.884 131.154 57.0667 131.154C56.2344 131.154 55.5333 130.873 54.9634 130.31C54.3936 129.741 54.1086 129.04 54.1086 128.207C54.1086 127.375 54.3936 126.678 54.9634 126.115C55.5333 125.545 56.2344 125.26 57.0667 125.26C57.8915 125.26 58.5888 125.545 59.1587 126.115C59.7361 126.678 60.0247 127.375 60.0247 128.207C60.0247 129.032 59.7361 129.733 59.1587 130.31ZM55.4921 129.793C55.9195 130.22 56.4443 130.434 57.0667 130.434C57.689 130.434 58.2139 130.22 58.6413 129.793C59.0687 129.351 59.2824 128.822 59.2824 128.207C59.2824 127.585 59.0687 127.06 58.6413 126.633C58.2139 126.198 57.689 125.98 57.0667 125.98C56.4443 125.98 55.9195 126.198 55.4921 126.633C55.0647 127.06 54.851 127.585 54.851 128.207C54.851 128.822 55.0647 129.351 55.4921 129.793ZM65.7712 125.395V130.299H66.5585V132.526H65.8161V131.019H61.2272V132.526H60.4849V130.299H61.171C61.5534 129.789 61.7446 129.081 61.7446 128.173V125.395H65.7712ZM62.0708 130.299H65.0288V126.115H62.4869V128.173C62.4869 129.043 62.3482 129.752 62.0708 130.299ZM70.6957 125.26C71.498 125.26 72.1804 125.545 72.7427 126.115C73.3126 126.685 73.5975 127.382 73.5975 128.207C73.5975 129.032 73.3126 129.729 72.7427 130.299C72.1804 130.869 71.498 131.154 70.6957 131.154C69.6985 131.154 68.9411 130.742 68.4238 129.917V133.269H67.6814V125.395H68.4238V126.498C68.9411 125.673 69.6985 125.26 70.6957 125.26ZM69.0649 129.793C69.4923 130.22 70.0171 130.434 70.6395 130.434C71.2618 130.434 71.7867 130.22 72.2141 129.793C72.6415 129.351 72.8552 128.822 72.8552 128.207C72.8552 127.585 72.6415 127.06 72.2141 126.633C71.7867 126.198 71.2618 125.98 70.6395 125.98C70.0171 125.98 69.4923 126.198 69.0649 126.633C68.6375 127.06 68.4238 127.585 68.4238 128.207C68.4238 128.822 68.6375 129.351 69.0649 129.793ZM79.5445 130.31C78.9671 130.873 78.2698 131.154 77.4525 131.154C76.6202 131.154 75.9191 130.873 75.3492 130.31C74.7794 129.741 74.4944 129.04 74.4944 128.207C74.4944 127.375 74.7794 126.678 75.3492 126.115C75.9191 125.545 76.6202 125.26 77.4525 125.26C78.2773 125.26 78.9746 125.545 79.5445 126.115C80.1218 126.678 80.4105 127.375 80.4105 128.207C80.4105 129.032 80.1218 129.733 79.5445 130.31ZM75.8778 129.793C76.3052 130.22 76.8301 130.434 77.4525 130.434C78.0748 130.434 78.5997 130.22 79.0271 129.793C79.4545 129.351 79.6682 128.822 79.6682 128.207C79.6682 127.585 79.4545 127.06 79.0271 126.633C78.5997 126.198 78.0748 125.98 77.4525 125.98C76.8301 125.98 76.3052 126.198 75.8778 126.633C75.4504 127.06 75.2367 127.585 75.2367 128.207C75.2367 128.822 75.4504 129.351 75.8778 129.793ZM84.1496 131.154C83.3473 131.154 82.6725 130.888 82.1251 130.355C81.5852 129.816 81.3153 129.118 81.3153 128.263C81.3153 127.304 81.4578 126.569 81.7427 126.059C82.0276 125.542 82.605 125.073 83.4748 124.653C83.7522 124.526 83.9697 124.428 84.1271 124.361C84.3896 124.256 84.5958 124.166 84.7457 124.091C85.3981 123.791 85.728 123.42 85.7355 122.977L86.3204 123.315C86.2829 123.502 86.2229 123.671 86.1404 123.821C86.0429 123.986 85.9455 124.117 85.848 124.214C85.758 124.312 85.6155 124.417 85.4206 124.529C85.2931 124.604 85.1394 124.687 84.9594 124.777L84.3971 125.013L83.8685 125.238C83.3511 125.463 82.9649 125.699 82.71 125.946C82.4625 126.186 82.2863 126.501 82.1814 126.891C82.4213 126.569 82.7362 126.325 83.1261 126.16C83.516 125.988 83.9097 125.902 84.3071 125.902C85.0569 125.902 85.6755 126.149 86.1629 126.644C86.6578 127.131 86.9052 127.757 86.9052 128.522C86.9052 129.279 86.6428 129.909 86.1179 130.412C85.6005 130.907 84.9444 131.154 84.1496 131.154ZM82.6875 129.861C83.0774 130.228 83.5648 130.412 84.1496 130.412C84.7345 130.412 85.2144 130.235 85.5893 129.883C85.9717 129.523 86.1629 129.07 86.1629 128.522C86.1629 127.967 85.983 127.514 85.623 127.161C85.2706 126.801 84.7982 126.621 84.2059 126.621C83.6735 126.621 83.1899 126.79 82.755 127.127C82.3201 127.45 82.1026 127.892 82.1026 128.455C82.1026 129.025 82.2976 129.493 82.6875 129.861ZM92.0158 127.847V125.395H92.7581V131.019H92.0158V128.567H88.7766V131.019H88.0343V125.395H88.7766V127.847H92.0158ZM96.9261 125.26C97.7659 125.26 98.437 125.557 98.9393 126.149C99.4567 126.734 99.7154 127.427 99.7154 128.23C99.7154 128.267 99.7079 128.383 99.6929 128.578H94.7553C94.8303 129.141 95.0703 129.591 95.4752 129.928C95.8801 130.265 96.3862 130.434 96.9936 130.434C97.8484 130.434 98.452 130.116 98.8044 129.478L99.4567 129.861C99.2093 130.265 98.8681 130.584 98.4332 130.817C98.0058 131.042 97.5222 131.154 96.9823 131.154C96.0975 131.154 95.3777 130.877 94.8228 130.322C94.268 129.767 93.9905 129.062 93.9905 128.207C93.9905 127.36 94.2642 126.659 94.8116 126.104C95.3589 125.542 96.0638 125.26 96.9261 125.26ZM96.9261 125.98C96.3412 125.98 95.8501 126.153 95.4527 126.498C95.0628 126.843 94.8303 127.296 94.7553 127.859H98.9506C98.8681 127.259 98.6394 126.798 98.2645 126.475C97.8746 126.145 97.4285 125.98 96.9261 125.98ZM103.494 125.26C104.334 125.26 105.005 125.557 105.508 126.149C106.025 126.734 106.284 127.427 106.284 128.23C106.284 128.267 106.276 128.383 106.261 128.578H101.324C101.399 129.141 101.639 129.591 102.043 129.928C102.448 130.265 102.954 130.434 103.562 130.434C104.417 130.434 105.02 130.116 105.373 129.478L106.025 129.861C105.778 130.265 105.436 130.584 105.001 130.817C104.574 131.042 104.09 131.154 103.551 131.154C102.666 131.154 101.946 130.877 101.391 130.322C100.836 129.767 100.559 129.062 100.559 128.207C100.559 127.36 100.832 126.659 101.38 126.104C101.927 125.542 102.632 125.26 103.494 125.26ZM103.494 125.98C102.909 125.98 102.418 126.153 102.021 126.498C101.631 126.843 101.399 127.296 101.324 127.859H105.519C105.436 127.259 105.208 126.798 104.833 126.475C104.443 126.145 103.997 125.98 103.494 125.98Z" fill="white"/>
</g>
<defs>
<clipPath id="clip0_29_629">
<rect width="402" height="180" rx="9" fill="white"/>
</clipPath>
</defs>
</svg>
