<svg width="144" height="46" viewBox="0 0 144 46" fill="none" xmlns="http://www.w3.org/2000/svg">
<path d="M9.2305 45.9977C8.85906 45.9977 8.49663 45.993 8.12811 45.9848C7.36472 45.9751 6.60313 45.9096 5.84955 45.7888C5.14688 45.6694 4.46619 45.4473 3.82993 45.1298C3.19948 44.815 2.62446 44.4023 2.1269 43.9073C1.6221 43.4182 1.20182 42.8509 0.882724 42.228C0.560147 41.6009 0.336905 40.9288 0.220772 40.2351C0.0954013 39.4896 0.027589 38.7359 0.0179202 37.9803C0.0101182 37.7267 0 36.8824 0 36.8824V9.10259C0 9.10259 0.0107278 8.27115 0.0179202 8.02679C0.0272089 7.27244 0.0946551 6.51987 0.219675 5.77561C0.336036 5.07996 0.559468 4.40593 0.882236 3.77685C1.2001 3.15429 1.618 2.58657 2.11971 2.09569C2.62089 1.60015 3.19777 1.18523 3.82932 0.866077C4.46414 0.549684 5.14355 0.329199 5.8448 0.21201C6.60086 0.0900955 7.36512 0.0242118 8.13115 0.0149116L9.23111 0H134.513L135.626 0.0152724C136.385 0.0241686 137.142 0.0895323 137.891 0.210807C138.6 0.3295 139.286 0.55156 139.928 0.869685C141.193 1.51285 142.223 2.53041 142.872 3.77974C143.19 4.4045 143.41 5.07307 143.525 5.76275C143.651 6.5131 143.722 7.27156 143.737 8.03208C143.74 8.37264 143.74 8.73846 143.74 9.10259C143.75 9.55355 143.75 9.98274 143.75 10.4155V35.5833C143.75 36.0201 143.75 36.4464 143.74 36.8762C143.74 37.2673 143.74 37.6255 143.735 37.9943C143.721 38.7413 143.651 39.4862 143.527 40.2232C143.413 40.9219 143.191 41.5993 142.869 42.2314C142.547 42.8476 142.13 43.41 141.631 43.8978C141.133 44.3954 140.557 44.8106 139.925 45.1274C139.284 45.4473 138.599 45.6702 137.891 45.7886C137.138 45.91 136.376 45.9756 135.613 45.9847C135.248 45.9931 134.883 45.9974 134.519 45.9976L133.197 46L9.2305 45.9977Z" fill="black"/>
<path d="M31.5111 22.2612C31.5234 21.3163 31.7778 20.3897 32.2506 19.5679C32.7234 18.746 33.3992 18.0555 34.2151 17.5605C33.6968 16.8301 33.013 16.229 32.218 15.8049C31.423 15.3809 30.5387 15.1456 29.6354 15.1177C27.7084 14.9181 25.8404 16.2553 24.8584 16.2553C23.8576 16.2553 22.3457 15.1375 20.7178 15.1705C19.6648 15.2041 18.6385 15.5062 17.739 16.0474C16.8395 16.5886 16.0974 17.3505 15.5851 18.2588C13.3658 22.0498 15.0212 27.6211 17.1472 30.6854C18.2108 32.186 19.4537 33.862 21.0803 33.8026C22.6719 33.7375 23.2663 32.8012 25.1876 32.8012C27.0911 32.8012 27.6488 33.8026 29.3083 33.7647C31.0162 33.7375 32.0922 32.2576 33.1185 30.7429C33.8827 29.6738 34.4707 28.4921 34.8608 27.2418C33.8686 26.8277 33.0218 26.1346 32.4262 25.2489C31.8305 24.3632 31.5122 23.3241 31.5111 22.2612ZM28.3766 13.1023C29.3078 11.9994 29.7666 10.5817 29.6555 9.15044C28.2328 9.29787 26.9186 9.96873 25.9748 11.0294C25.5133 11.5475 25.1599 12.1503 24.9347 12.8033C24.7095 13.4563 24.617 14.1467 24.6624 14.835C25.374 14.8422 26.078 14.69 26.7214 14.3899C27.3647 14.0898 27.9307 13.6495 28.3766 13.1023ZM51.6305 30.004H46.1989L44.8946 33.8039H42.5939L47.7386 19.7449H50.1289L55.2735 33.8039H52.9337L51.6305 30.004ZM46.7614 28.2504H51.0668L48.9444 22.0833H48.885L46.7614 28.2504ZM66.3842 28.6795C66.3842 31.8647 64.6562 33.9111 62.0486 33.9111C61.3881 33.9452 60.7311 33.7951 60.153 33.478C59.5749 33.1608 59.099 32.6894 58.7798 32.1178H58.7304V37.1948H56.598V23.5538H58.6622V25.2587H58.7014C59.0353 24.6898 59.5192 24.2209 60.1017 23.9018C60.6842 23.5827 61.3435 23.4254 62.0094 23.4466C64.6461 23.4466 66.3842 25.503 66.3842 28.6794V28.6795ZM64.1923 28.6795C64.1923 26.6042 63.1054 25.2399 61.4469 25.2399C59.8175 25.2399 58.7216 26.6329 58.7216 28.6794C58.7216 30.7447 59.8175 32.1279 61.4469 32.1279C63.1054 32.1279 64.1923 30.7735 64.1923 28.6794V28.6795ZM77.8187 28.6795C77.8187 31.8647 76.0908 33.9111 73.4831 33.9111C72.8226 33.9452 72.1657 33.7951 71.5876 33.4779C71.0095 33.1608 70.5336 32.6894 70.2144 32.1178H70.1651V37.1948H68.0326V23.5538H70.0967V25.2587H70.1359C70.4698 24.6898 70.9537 24.2209 71.5362 23.9018C72.1187 23.5827 72.778 23.4254 73.4439 23.4466C76.0807 23.4466 77.8187 25.503 77.8187 28.6794V28.6795ZM75.6269 28.6795C75.6269 26.6042 74.5399 25.2399 72.8814 25.2399C71.252 25.2399 70.1561 26.6329 70.1561 28.6794C70.1561 30.7447 71.252 32.1279 72.8814 32.1279C74.5399 32.1279 75.6269 30.7735 75.6269 28.6794V28.6795ZM85.3761 29.8868C85.5341 31.2809 86.9068 32.1964 88.7826 32.1964C90.58 32.1964 91.8733 31.2809 91.8733 30.0238C91.8733 28.9325 91.0933 28.2791 89.2467 27.8314L87.3998 27.3924C84.7833 26.7689 83.5685 25.5615 83.5685 23.6023C83.5685 21.1766 85.7111 19.5105 88.7535 19.5105C91.7645 19.5105 93.8287 21.1766 93.8981 23.6023H91.7454C91.6166 22.1994 90.4411 21.3524 88.7232 21.3524C87.0054 21.3524 85.8299 22.2093 85.8299 23.4564C85.8299 24.4504 86.5807 25.0353 88.4173 25.483L89.9872 25.8634C92.9108 26.5455 94.1257 27.7042 94.1257 29.7606C94.1257 32.3909 92.0021 34.0383 88.6246 34.0383C85.4644 34.0383 83.3309 32.4295 83.1931 29.8867L85.3761 29.8868ZM98.7279 21.1281V23.5538H100.704V25.22H98.7279V30.8707C98.7279 31.7486 99.1234 32.1577 99.992 32.1577C100.226 32.1536 100.461 32.1374 100.693 32.109V33.7653C100.303 33.8372 99.9061 33.8698 99.509 33.8625C97.4056 33.8625 96.5853 33.0831 96.5853 31.0951V25.22H95.0747V23.5538H96.5853V21.1281H98.7279ZM101.848 28.6795C101.848 25.4543 103.773 23.4278 106.775 23.4278C109.787 23.4278 111.703 25.4543 111.703 28.6795C111.703 31.9133 109.797 33.9311 106.775 33.9311C103.754 33.9311 101.848 31.9133 101.848 28.6795ZM109.53 28.6795C109.53 26.4671 108.503 25.1613 106.775 25.1613C105.047 25.1613 104.02 26.477 104.02 28.6795C104.02 30.9006 105.047 32.1964 106.775 32.1964C108.503 32.1964 109.53 30.9006 109.53 28.6795ZM113.461 23.5538H115.495V25.2984H115.545C115.682 24.7535 116.006 24.272 116.461 23.9347C116.916 23.5975 117.475 23.4251 118.044 23.4466C118.289 23.4457 118.535 23.472 118.774 23.525V25.493C118.464 25.3995 118.14 25.3566 117.816 25.3659C117.506 25.3535 117.197 25.4074 116.911 25.5239C116.624 25.6403 116.366 25.8167 116.155 26.0407C115.944 26.2647 115.785 26.5312 115.688 26.8218C115.591 27.1124 115.559 27.4202 115.594 27.7242V33.8039H113.461V23.5538ZM128.606 30.7933C128.319 32.6541 126.483 33.9311 124.133 33.9311C121.111 33.9311 119.235 31.9333 119.235 28.728C119.235 25.513 121.121 23.4278 124.043 23.4278C126.918 23.4278 128.725 25.3759 128.725 28.4837V29.2046H121.387V29.3317C121.354 29.7089 121.401 30.089 121.528 30.4465C121.654 30.8041 121.856 31.1311 122.121 31.4057C122.385 31.6803 122.706 31.8963 123.061 32.0393C123.416 32.1823 123.799 32.249 124.182 32.2351C124.686 32.2817 125.192 32.1666 125.624 31.9068C126.056 31.647 126.392 31.2565 126.581 30.7933H128.606ZM121.398 27.7341H126.591C126.611 27.3949 126.558 27.0555 126.438 26.7371C126.318 26.4187 126.133 26.1283 125.893 25.884C125.654 25.6397 125.366 25.4469 125.048 25.3176C124.73 25.1882 124.387 25.1253 124.043 25.1326C123.696 25.1305 123.352 25.1964 123.03 25.3263C122.709 25.4562 122.417 25.6476 122.171 25.8895C121.925 26.1313 121.73 26.4189 121.597 26.7355C121.465 27.0521 121.397 27.3915 121.398 27.7341ZM46.4942 9.16256C46.9413 9.13089 47.3899 9.19753 47.8077 9.35766C48.2256 9.51778 48.6021 9.76741 48.9103 10.0885C49.2185 10.4096 49.4507 10.7942 49.59 11.2146C49.7293 11.6349 49.7723 12.0805 49.7159 12.5193C49.7159 14.6774 48.5336 15.918 46.4942 15.918H44.021V9.16244L46.4942 9.16256ZM45.0845 14.9626H46.3754C46.6949 14.9814 47.0146 14.9297 47.3112 14.8112C47.6079 14.6928 47.8741 14.5106 48.0903 14.2779C48.3066 14.0451 48.4676 13.7677 48.5615 13.4659C48.6555 13.1641 48.68 12.8453 48.6333 12.533C48.6766 12.2218 48.6496 11.9051 48.5542 11.6054C48.4589 11.3058 48.2975 11.0307 48.0817 10.7998C47.8659 10.5689 47.601 10.388 47.306 10.27C47.0111 10.152 46.6933 10.0998 46.3754 10.1172H45.0845V14.9626ZM50.9172 13.3667C50.8847 13.0317 50.9235 12.6936 51.0312 12.3743C51.1389 12.0549 51.313 11.7613 51.5425 11.5123C51.7719 11.2632 52.0515 11.0642 52.3635 10.928C52.6754 10.7919 53.0128 10.7215 53.3539 10.7215C53.695 10.7215 54.0323 10.7919 54.3443 10.928C54.6562 11.0642 54.9359 11.2632 55.1653 11.5123C55.3947 11.7613 55.5689 12.0549 55.6766 12.3743C55.7842 12.6936 55.8231 13.0317 55.7906 13.3667C55.8238 13.7021 55.7855 14.0407 55.6781 14.3606C55.5708 14.6805 55.3968 14.9748 55.1673 15.2244C54.9378 15.474 54.6579 15.6735 54.3456 15.81C54.0333 15.9465 53.6955 16.017 53.3539 16.017C53.0123 16.017 52.6745 15.9465 52.3622 15.81C52.0499 15.6735 51.77 15.474 51.5405 15.2244C51.311 14.9748 51.137 14.6805 51.0297 14.3606C50.9223 14.0407 50.884 13.7021 50.9172 13.3667ZM54.7418 13.3667C54.7418 12.2616 54.2386 11.6154 53.3556 11.6154C52.4692 11.6154 51.9706 12.2616 51.9706 13.3667C51.9706 14.4806 52.4693 15.1219 53.3556 15.1219C54.2386 15.1219 54.7418 14.4762 54.7418 13.3667ZM62.2688 15.9179H61.2109L60.143 12.1632H60.0623L58.999 15.9179H57.9512L56.5269 10.8198H57.5612L58.4868 14.7099H58.563L59.6254 10.8198H60.6036L61.666 14.7099H61.7466L62.6677 10.8198H63.6875L62.2688 15.9179ZM64.8853 10.8199H65.867V11.6297H65.9432C66.0725 11.3388 66.2905 11.095 66.5669 10.9322C66.8433 10.7693 67.1643 10.6957 67.4852 10.7214C67.7366 10.7028 67.9891 10.7402 68.2238 10.8309C68.4586 10.9215 68.6697 11.0632 68.8415 11.2453C69.0132 11.4274 69.1412 11.6453 69.2161 11.8828C69.2909 12.1204 69.3106 12.3715 69.2737 12.6175V15.9178H68.2539V12.8702C68.2539 12.051 67.893 11.6435 67.1389 11.6435C66.9682 11.6357 66.7978 11.6644 66.6394 11.7276C66.481 11.7908 66.3383 11.8871 66.2211 12.0098C66.1039 12.1325 66.015 12.2787 65.9605 12.4385C65.9059 12.5983 65.8871 12.7678 65.9051 12.9354V15.9179H64.8853V10.8199ZM70.8985 8.8297H71.9182V15.9179H70.8985V8.8297ZM73.3358 13.3667C73.3033 13.0316 73.3421 12.6935 73.4498 12.3742C73.5575 12.0548 73.7317 11.7611 73.9612 11.512C74.1906 11.2629 74.4703 11.0639 74.7823 10.9277C75.0943 10.7915 75.4317 10.7212 75.7728 10.7212C76.114 10.7212 76.4514 10.7915 76.7634 10.9277C77.0754 11.0639 77.3551 11.2629 77.5845 11.512C77.814 11.7611 77.9881 12.0548 78.0958 12.3742C78.2035 12.6935 78.2424 13.0316 78.2099 13.3667C78.2429 13.702 78.2044 14.0405 78.097 14.3604C77.9896 14.6802 77.8155 14.9743 77.586 15.2238C77.3565 15.4733 77.0766 15.6727 76.7643 15.8091C76.4521 15.9456 76.1143 16.0161 75.7728 16.0161C75.4313 16.0161 75.0936 15.9456 74.7813 15.8091C74.4691 15.6727 74.1892 15.4733 73.9597 15.2238C73.7302 14.9743 73.5561 14.6802 73.4487 14.3604C73.3412 14.0405 73.3028 13.702 73.3358 13.3667ZM77.1604 13.3667C77.1604 12.2616 76.6572 11.6154 75.7742 11.6154C74.8878 11.6154 74.3892 12.2616 74.3892 13.3667C74.3892 14.4806 74.8879 15.1219 75.7742 15.1219C76.6572 15.1219 77.1604 14.4762 77.1604 13.3667ZM79.2833 14.4762C79.2833 13.5585 79.9759 13.0294 81.2052 12.9542L82.6048 12.8747V12.4346C82.6048 11.8961 82.244 11.5921 81.547 11.5921C80.9777 11.5921 80.5832 11.7983 80.4701 12.1588H79.4828C79.587 11.2831 80.4219 10.7215 81.594 10.7215C82.8894 10.7215 83.6201 11.3578 83.6201 12.4346V15.9179H82.6384V15.2014H82.5577C82.394 15.4584 82.164 15.6679 81.8913 15.8086C81.6187 15.9492 81.3131 16.0159 81.0057 16.0019C80.7888 16.0241 80.5696 16.0013 80.3622 15.9348C80.1547 15.8684 79.9637 15.7598 79.8015 15.616C79.6392 15.4723 79.5093 15.2966 79.42 15.1003C79.3308 14.904 79.2842 14.6914 79.2833 14.4762ZM82.6048 14.0405V13.6143L81.343 13.6939C80.6314 13.7409 80.3086 13.9797 80.3086 14.4291C80.3086 14.888 80.7121 15.155 81.2668 15.155C81.4293 15.1713 81.5935 15.1551 81.7496 15.1074C81.9057 15.0598 82.0504 14.9816 82.1752 14.8776C82.3001 14.7737 82.4024 14.646 82.4762 14.5022C82.55 14.3583 82.5937 14.2014 82.6048 14.0405ZM84.9603 13.3667C84.9603 11.7557 85.7996 10.7353 87.1051 10.7353C87.428 10.7206 87.7485 10.797 88.0291 10.9553C88.3097 11.1137 88.5388 11.3476 88.6897 11.6297H88.7658V8.82959H89.7855V15.9178H88.8084V15.1122H88.7278C88.5653 15.3924 88.3282 15.6234 88.0422 15.7802C87.7562 15.937 87.4322 16.0136 87.1052 16.0018C85.7906 16.0018 84.9603 14.9812 84.9603 13.3666V13.3667ZM86.0137 13.3667C86.0137 14.4479 86.5303 15.0986 87.3941 15.0986C88.2536 15.0986 88.7849 14.4386 88.7849 13.371C88.7849 12.3086 88.2481 11.6391 87.3941 11.6391C86.5358 11.6391 86.0137 12.2942 86.0137 13.3667ZM94.0046 13.3667C93.9721 13.0317 94.0109 12.6936 94.1186 12.3743C94.2263 12.0549 94.4004 11.7613 94.6299 11.5123C94.8593 11.2632 95.1389 11.0642 95.4509 10.928C95.7628 10.7919 96.1002 10.7215 96.4413 10.7215C96.7824 10.7215 97.1198 10.7919 97.4317 10.928C97.7436 11.0642 98.0233 11.2632 98.2527 11.5123C98.4822 11.7613 98.6563 12.0549 98.764 12.3743C98.8716 12.6936 98.9105 13.0317 98.878 13.3667C98.9112 13.7021 98.8729 14.0407 98.7655 14.3606C98.6582 14.6805 98.4842 14.9748 98.2547 15.2244C98.0252 15.474 97.7453 15.6735 97.433 15.81C97.1207 15.9465 96.7829 16.017 96.4413 16.017C96.0997 16.017 95.7619 15.9465 95.4496 15.81C95.1373 15.6735 94.8574 15.474 94.6279 15.2244C94.3984 14.9748 94.2244 14.6805 94.1171 14.3606C94.0097 14.0407 93.9714 13.7021 94.0046 13.3667ZM97.8292 13.3667C97.8292 12.2616 97.326 11.6154 96.443 11.6154C95.5566 11.6154 95.058 12.2616 95.058 13.3667C95.058 14.4806 95.5567 15.1219 96.443 15.1219C97.326 15.1219 97.8292 14.4762 97.8292 13.3667ZM100.246 10.8199H101.228V11.6297H101.304C101.433 11.3388 101.651 11.095 101.928 10.9322C102.204 10.7693 102.525 10.6957 102.846 10.7214C103.098 10.7028 103.35 10.7402 103.585 10.8309C103.82 10.9215 104.031 11.0632 104.202 11.2453C104.374 11.4274 104.502 11.6453 104.577 11.8828C104.652 12.1204 104.671 12.3715 104.635 12.6175V15.9178H103.615V12.8702C103.615 12.051 103.254 11.6435 102.5 11.6435C102.329 11.6357 102.159 11.6644 102 11.7276C101.842 11.7908 101.699 11.8871 101.582 12.0098C101.465 12.1325 101.376 12.2787 101.321 12.4385C101.267 12.5983 101.248 12.7678 101.266 12.9354V15.9179H100.246L100.246 10.8199ZM110.397 9.55066V10.8431H111.516V11.6905H110.397V14.3119C110.397 14.846 110.62 15.0799 111.127 15.0799C111.257 15.0794 111.387 15.0716 111.516 15.0565V15.8947C111.333 15.927 111.147 15.9442 110.961 15.9461C109.827 15.9461 109.376 15.5524 109.376 14.5696V11.6905H108.556V10.843H109.376V9.55077L110.397 9.55066ZM112.909 8.8297H113.92V11.6391H114.001C114.136 11.3455 114.36 11.1003 114.642 10.9369C114.924 10.7734 115.25 10.6997 115.576 10.7258C115.826 10.7124 116.076 10.7536 116.308 10.8465C116.54 10.9394 116.749 11.0817 116.919 11.2632C117.089 11.4447 117.216 11.6611 117.292 11.8967C117.367 12.1324 117.389 12.3815 117.356 12.6265V15.9179H116.335V12.8747C116.335 12.0603 115.95 11.648 115.23 11.648C115.055 11.6338 114.878 11.6576 114.713 11.7176C114.548 11.7777 114.399 11.8726 114.275 11.9957C114.151 12.1188 114.056 12.2672 113.996 12.4303C113.936 12.5935 113.913 12.7676 113.929 12.9404V15.9179H112.909V8.8297ZM123.301 14.5413C123.163 15.0072 122.863 15.4103 122.453 15.6799C122.044 15.9496 121.552 16.0686 121.062 16.0163C120.722 16.0251 120.384 15.9608 120.071 15.8277C119.758 15.6947 119.479 15.4961 119.252 15.2457C119.025 14.9954 118.855 14.6992 118.756 14.3779C118.656 14.0566 118.629 13.7177 118.676 13.3849C118.63 13.051 118.658 12.7115 118.757 12.3892C118.857 12.0668 119.025 11.7693 119.251 11.5168C119.477 11.2642 119.755 11.0625 120.067 10.9253C120.379 10.788 120.717 10.7185 121.058 10.7214C122.496 10.7214 123.363 11.6905 123.363 13.2914V13.6425H119.714V13.6989C119.698 13.8859 119.722 14.0742 119.784 14.2517C119.847 14.4292 119.946 14.5919 120.075 14.7294C120.205 14.8669 120.362 14.9762 120.537 15.0502C120.712 15.1242 120.9 15.1614 121.091 15.1593C121.334 15.1882 121.582 15.1449 121.8 15.0348C122.019 14.9248 122.2 14.753 122.32 14.5413H123.301ZM119.714 12.8984H122.324C122.337 12.7273 122.314 12.5555 122.255 12.3939C122.197 12.2323 122.105 12.0846 121.985 11.9602C121.865 11.8358 121.72 11.7376 121.56 11.6717C121.399 11.6058 121.226 11.5738 121.052 11.5778C120.876 11.5756 120.701 11.6082 120.538 11.6738C120.374 11.7394 120.226 11.8367 120.101 11.9597C119.976 12.0828 119.878 12.2293 119.812 12.3905C119.745 12.5517 119.712 12.7244 119.714 12.8984Z" fill="white"/>
</svg>
