<svg width="145" height="47" viewBox="0 0 145 47" fill="none" xmlns="http://www.w3.org/2000/svg">
<path d="M9.30709 46.3793C8.93256 46.3793 8.56712 46.3746 8.19554 46.3664C7.42583 46.3565 6.65791 46.2905 5.89808 46.1687C5.18959 46.0483 4.50325 45.8244 3.86171 45.5043C3.22603 45.1868 2.64624 44.7706 2.14455 44.2716C1.63555 43.7784 1.21179 43.2065 0.890047 42.5783C0.564795 41.9461 0.3397 41.2684 0.222604 40.5689C0.0961928 39.8173 0.0278178 39.0573 0.0180689 38.2954C0.0102022 38.0397 0 37.1884 0 37.1884V9.17811C0 9.17811 0.0108168 8.33977 0.0180689 8.09339C0.0274346 7.33277 0.0954404 6.57397 0.221498 5.82353C0.338824 5.12211 0.56411 4.44248 0.889556 3.80819C1.21006 3.18046 1.63142 2.60803 2.13729 2.11307C2.64263 1.61342 3.2243 1.19507 3.86109 0.873263C4.50117 0.554244 5.18622 0.33193 5.89329 0.213769C6.65562 0.090843 7.42622 0.0244127 8.19861 0.0150353L9.3077 0H135.629L136.751 0.0153991C137.516 0.0243691 138.28 0.0902751 139.035 0.212556C139.75 0.332233 140.442 0.556136 141.089 0.876901C142.365 1.5254 143.403 2.55141 144.058 3.8111C144.378 4.44105 144.6 5.11516 144.715 5.81056C144.843 6.56713 144.914 7.33189 144.929 8.09872C144.933 8.44211 144.933 8.81096 144.933 9.17811C144.943 9.63281 144.943 10.0656 144.943 10.502V35.8785C144.943 36.319 144.943 36.7488 144.933 37.1822C144.933 37.5765 144.933 37.9377 144.928 38.3095C144.913 39.0627 144.843 39.8138 144.718 40.5569C144.603 41.2615 144.379 41.9444 144.054 42.5818C143.73 43.2031 143.309 43.7702 142.806 44.262C142.304 44.7637 141.723 45.1824 141.086 45.5018C140.44 45.8244 139.749 46.0491 139.035 46.1685C138.276 46.2909 137.508 46.357 136.738 46.3662C136.37 46.3747 136.002 46.3791 135.635 46.3792L134.302 46.3816L9.30709 46.3793Z" fill="black"/>
<g clip-path="url(#clip0_36_232)">
<path d="M32.964 28.2289C36.148 26.5038 38.562 25.1895 38.77 25.0874C39.4354 24.7381 40.1228 23.8138 38.77 23.096C38.3332 22.8703 35.9814 21.5967 32.964 19.9546L28.7814 24.1223L32.9638 28.2289H32.964Z" fill="#FFD900"/>
<path d="M28.7875 24.1216L15.4689 37.3655C15.7813 37.4064 16.1342 37.3246 16.5505 37.0988C17.4242 36.6272 26.685 31.6371 32.9704 28.229L28.7875 24.1216Z" fill="#F43249"/>
<path d="M28.7631 24.1218L32.9455 19.9744C32.9455 19.9744 17.4629 11.6378 16.5259 11.1459C16.1734 10.9391 15.7778 10.8779 15.424 10.9391L28.7631 24.1216V24.1218Z" fill="#00EE76"/>
<path d="M28.7759 24.1239L15.4366 10.9414C14.8952 11.0648 14.4376 11.5367 14.4376 12.5014V35.8071C14.4376 36.6907 14.7917 37.3269 15.4571 37.3881L28.7757 24.1237L28.7759 24.1239Z" fill="#00D3FF"/>
<path d="M72.2871 20.3518C69.894 20.3518 67.9168 22.1789 67.9168 24.6841C67.9168 27.1688 69.8733 29.0164 72.2873 29.0164C74.7011 29.0164 76.6573 27.1893 76.6573 24.6841C76.6573 22.1789 74.7011 20.3518 72.2871 20.3518ZM72.2871 27.2925C70.9757 27.2925 69.8318 26.2039 69.8318 24.6648C69.8318 23.1043 70.9766 22.0371 72.2871 22.0371C73.5975 22.0371 74.7423 23.1043 74.7423 24.6648C74.7423 26.2039 73.5975 27.2925 72.2871 27.2925ZM62.7766 20.3518C60.3626 20.3518 58.4061 22.1789 58.4061 24.6841C58.4061 27.1688 60.3626 29.0164 62.7766 29.0164C65.1904 29.0164 67.1469 27.1893 67.1469 24.6841C67.1469 22.1789 65.1904 20.3518 62.7764 20.3518H62.7766ZM62.7766 27.2925C61.465 27.2925 60.3214 26.2039 60.3214 24.6648C60.3214 23.1043 61.4662 22.0371 62.7766 22.0371C64.088 22.0371 65.2319 23.1043 65.2319 24.6648C65.2319 26.2039 64.1076 27.2925 62.7766 27.2925ZM51.4763 21.6866V23.5137H55.8878C55.7624 24.5402 55.4097 25.2999 54.889 25.8136C54.2442 26.4498 53.2452 27.1483 51.4763 27.1483C48.7496 27.1483 46.6485 24.9721 46.6485 22.2821C46.6485 19.5921 48.7508 17.3747 51.4763 17.3747C52.9533 17.3747 54.0154 17.9498 54.8061 18.6893L56.1165 17.3952C55.0132 16.3484 53.5362 15.5479 51.4763 15.5479C47.7507 15.5479 44.6289 18.5656 44.6289 22.2412C44.6289 25.917 47.7507 28.9348 51.4763 28.9348C53.4947 28.9348 54.9936 28.2781 56.2004 27.0454C57.4281 25.834 57.8028 24.1295 57.8028 22.754C57.8028 22.323 57.7615 21.9327 57.6984 21.6041L51.4763 21.6866ZM97.7178 23.1032C97.3637 22.138 96.2406 20.3518 93.9922 20.3518C91.7441 20.3518 89.8922 22.0973 89.8922 24.6841C89.8922 27.1065 91.7441 29.0164 94.2005 29.0164C96.1982 29.0164 97.343 27.805 97.8213 27.1065L96.3442 26.1211C95.8443 26.8401 95.1787 27.3118 94.2005 27.3118C93.2222 27.3118 92.5359 26.8808 92.0982 25.9975L97.9042 23.5955L97.7178 23.1032ZM91.8072 24.5616C91.766 22.8979 93.1188 22.0359 94.0752 22.0359C94.8453 22.0359 95.4697 22.4055 95.6982 22.9602L91.8072 24.5616ZM87.0831 28.7293H88.9981V16.04H87.0831V28.7293ZM83.9622 21.317H83.9C83.4632 20.8032 82.6518 20.3518 81.6104 20.3518C79.4252 20.3518 77.4482 22.2617 77.4482 24.6841C77.4482 27.1065 79.4459 28.9961 81.6104 28.9961C82.6506 28.9961 83.4623 28.5445 83.9 28.0103H83.9622V28.6263C83.9622 30.29 83.0667 31.1722 81.6312 31.1722C80.4656 31.1722 79.7369 30.3307 79.4459 29.6322L77.7816 30.3307C78.2597 31.4806 79.5298 32.8972 81.6312 32.8972C83.8784 32.8972 85.7726 31.5829 85.7726 28.4006V20.6184H83.9622V21.317ZM81.777 27.2925C80.4656 27.2925 79.3632 26.2039 79.3632 24.6852C79.3632 23.1666 80.4665 22.0573 81.777 22.0573C83.0679 22.0573 84.1081 23.1666 84.1081 24.6852C84.1072 26.1834 83.0667 27.2925 81.777 27.2925ZM106.646 16.0402H102.067V28.7293H103.982V23.9242H106.646C108.769 23.9242 110.849 22.4044 110.849 19.9822C110.849 17.5598 108.769 16.04 106.646 16.04V16.0402ZM106.708 22.1596H104.002V17.8057H106.708C108.123 17.8057 108.955 18.9761 108.955 19.982C108.935 20.9676 108.124 22.1596 106.708 22.1596ZM118.487 20.3313C117.114 20.3313 115.678 20.9269 115.095 22.2821L116.781 22.9806C117.156 22.2821 117.822 22.0564 118.53 22.0564C119.529 22.0564 120.527 22.6517 120.548 23.6985V23.8221C120.194 23.6169 119.466 23.3289 118.55 23.3289C116.719 23.3289 114.866 24.3349 114.866 26.1834C114.866 27.8878 116.365 28.9757 118.03 28.9757C119.32 28.9757 120.028 28.4006 120.464 27.7234H120.527V28.709H122.378V23.8424C122.358 21.6047 120.672 20.3311 118.487 20.3311V20.3313ZM118.259 27.272C117.634 27.272 116.76 26.9635 116.76 26.2048C116.76 25.2192 117.841 24.8496 118.778 24.8496C119.61 24.8496 120.006 25.0344 120.527 25.2805C120.381 26.451 119.361 27.272 118.259 27.272ZM129.059 20.6196L126.874 26.1016H126.812L124.544 20.6193H122.484L125.896 28.2983L123.961 32.5899H125.958L131.182 20.6193H129.059L129.059 20.6196ZM111.911 28.7293H113.826V16.04H111.911V28.7293Z" fill="white"/>
</g>
<defs>
<clipPath id="clip0_36_232">
<rect width="116.667" height="26.0746" fill="white" transform="translate(14.4376 10.7319)"/>
</clipPath>
</defs>
</svg>
